<!--?xml version="1.0" encoding="utf-8"?-->
<!-- Svg Vector Icons : http://www.onlinewebfonts.com/icon -->

<svg version="1.1" xmlns="http://www.w3.org/2000/svg" xmlns:xlink="http://www.w3.org/1999/xlink" x="0px" y="0px" viewBox="0 0 256 256" enable-background="new 0 0 256 256" xml:space="preserve">
<metadata> Svg Vector Icons : http://www.onlinewebfonts.com/icon </metadata>
<g> <path fill="#f1f1f1" data-title="Layer 0" xs="0" d="M175.9,160.8c-3.7,2.1-8.9,3.2-15.3,3.2c-7.3,0-12.5-1.4-16-3.8c-3.8-2.8-6.2-7.6-7.1-14.3h-14.3 c0.6,11.2,4.7,19.3,12.1,24.5c6,4.2,14.5,6.3,25.3,6.3c11.2,0,19.9-2.3,26.1-6.8c6.2-4.6,9.2-10.8,9.2-18.7 c0-8.1-3.8-14.4-11.4-18.9c-3.4-2-11.1-4.9-23-8.6c-8.1-2.6-13.2-4.4-15-5.4c-4.2-2.2-6.2-5.3-6.2-9c0-4.2,1.7-7.3,5.4-9.1 c3-1.6,7.1-2.3,12.7-2.3c6.4,0,11.3,1.1,14.5,3.6c3.2,2.3,5.5,6.3,6.8,11.7H194c-0.9-9.6-4.4-16.7-10.6-21.3 c-5.8-4.3-13.9-6.4-24.2-6.4c-9.5,0-17.2,2.1-23.4,6.4c-6.6,4.4-9.8,10.6-9.8,18.3s3.3,13.7,10.1,17.7c2.6,1.5,9.4,3.9,20.2,7.4 c9.7,3,15.4,4.9,17.1,5.8c5.4,2.7,8.2,6.4,8.2,11.1C181.6,155.7,179.6,158.6,175.9,160.8L175.9,160.8z M218.7,58.7l-78.6-45.5 c-7.5-4.3-16.8-4.3-24.3,0L37.3,58.7c-7.5,4.3-12.1,12.3-12.1,21v96.4c0,8.7,4.7,16.8,12.4,21.1l28.3,15.9c0.3,0.2,0.6,0.2,1,0.3 c3.8,1.8,8.2,2.8,13.8,2.8c10.2,0,18.1-3.7,22.8-8.9c4.2-4.9,6.3-12.3,6.3-22.4V87.1H95.4v97.4c0,6.3-1.1,10.8-3.3,13.7 c-2.2,2.8-5.8,4.3-10.6,4.3c-0.6,0-4.5-1-7.5-2.3l0,0c-0.2-0.1-0.3-0.3-0.5-0.4l-28.3-15.9c-2.8-1.6-4.5-4.5-4.5-7.7V79.7 c0-3.1,1.7-6.1,4.4-7.7l78.5-45.5c2.7-1.6,6.1-1.6,8.9,0L211,72.1c2.7,1.6,4.4,4.5,4.4,7.7v96.7c0,3.1-1.7,6-4.3,7.6l-75.9,45.3 c-2.7,1.6-6.1,1.7-8.9,0.1l-16.1-9.1c-3.7-2.1-8.4-0.8-10.5,2.9c-2.1,3.7-0.8,8.4,2.9,10.5l16.2,9.1c7.6,4.2,16.8,4.1,24.3-0.3 l75.9-45.3c7.3-4.4,11.8-12.3,11.8-20.8V79.7C230.7,71.1,226.1,63.1,218.7,58.7L218.7,58.7z"/></g>
</svg>