<!--?xml version="1.0" encoding="utf-8"?-->
<!-- Svg Vector Icons : http://www.onlinewebfonts.com/icon -->

<svg version="1.1" xmlns="http://www.w3.org/2000/svg" xmlns:xlink="http://www.w3.org/1999/xlink" x="0px" y="0px" viewBox="0 0 256 256" enable-background="new 0 0 256 256" xml:space="preserve">
<metadata> Svg Vector Icons : http://www.onlinewebfonts.com/icon </metadata>
<g> <path fill="#f1f1f1" data-title="Layer 0" xs="0" d="M213.1,141.2c-8.2,0.1-15.4,2-21.4,5c-2.2-4.4-4.4-8.2-4.8-11.1c-0.4-3.3-0.9-5.3-0.4-9.3 c0.5-4,2.8-9.6,2.8-10.1c-0.1-0.4-0.5-2.4-5.3-2.5c-4.7-0.1-8.8,0.9-9.3,2.2c-0.5,1.2-1.4,4.1-2,7.1c-0.8,4.3-9.5,19.7-14.4,27.7 c-1.6-3.1-3-5.9-3.3-8.1c-0.4-3.3-0.9-5.3-0.4-9.3c0.5-4,2.8-9.6,2.8-10.1c-0.1-0.4-0.5-2.4-5.3-2.5c-4.7-0.1-8.8,0.9-9.3,2.2 c-0.5,1.2-1,4.2-2,7.1c-1,2.9-12.5,28.5-15.5,35.2c-1.5,3.4-2.9,6.1-3.8,8c-1,1.8-0.1,0.1-0.1,0.3c-0.8,1.6-1.3,2.4-1.3,2.4v0.1 c-0.7,1.2-1.3,2.3-1.7,2.3c-0.2,0-0.7-3.1,0.1-7.3c1.7-8.9,5.8-22.8,5.8-23.3c0-0.2,0.8-2.7-2.7-3.9c-3.4-1.2-4.6,0.8-4.8,0.8 c-0.3,0-0.5,0.7-0.5,0.7s3.7-15.6-7.2-15.6c-6.8,0-16.2,7.4-20.9,14.2c-2.9,1.6-9.2,5-15.8,8.7c-2.5,1.4-5.2,2.9-7.7,4.2l-0.5-0.6 c-13.2-14.1-37.6-24-36.5-42.9c0.4-6.9,2.8-25,46.8-46.9c36.1-18,65-13,70-2.1c7.1,15.7-15.5,44.8-53,49c-14.3,1.6-21.8-3.9-23.7-6 c-2-2.2-2.3-2.3-3-1.8c-1.2,0.7-0.5,2.6,0,3.7c1.1,2.9,5.7,8.1,13.6,10.6c6.9,2.3,23.6,3.5,43.9-4.3c22.7-8.8,40.5-33.2,35.2-53.6 c-5.3-20.8-39.8-27.6-72.4-16C66,52.1,45,62.8,29.9,77c-18,16.8-20.8,31.5-19.6,37.5c4.2,21.7,34.1,35.9,46.1,46.3 c-0.6,0.3-1.2,0.7-1.7,0.9c-6,2.9-28.8,14.9-34.5,27.5c-6.4,14.3,1,24.6,6,26c15.4,4.3,31.2-3.4,39.7-16.1 c8.5-12.7,7.5-29.1,3.6-36.6l-0.1-0.3l4.7-2.8c3.1-1.8,6-3.4,8.7-4.9c-1.5,4-2.5,8.8-3.1,15.7c-0.7,8.1,2.7,18.6,7.1,22.8 c1.9,1.8,4.2,1.8,5.7,1.8c5.1,0,7.4-4.2,9.9-9.2c3.1-6.1,5.9-13.2,5.9-13.2s-3.4,19.2,6,19.2c3.4,0,6.9-4.5,8.5-6.8v0.1 c0,0,0.1-0.1,0.3-0.5c0.4-0.6,0.6-0.9,0.6-0.9v-0.1c1.4-2.4,4.5-7.9,9.1-17c6-11.7,11.7-26.3,11.7-26.3s0.6,3.6,2.3,9.5 c1,3.5,3.2,7.3,4.9,11.1c-1.4,1.9-2.2,3.1-2.2,3.1l0.1,0.1c-1.1,1.5-2.3,3.1-3.6,4.6c-4.7,5.6-10.3,12-11.1,13.9 c-0.9,2.2-0.7,3.8,1,5.1c1.2,0.9,3.4,1.1,5.8,0.9c4.2-0.3,7.2-1.3,8.7-2c2.3-0.8,4.9-2.1,7.5-3.9c4.6-3.4,7.4-8.2,7.1-14.7 c-0.1-3.6-1.3-7.1-2.7-10.4c0.4-0.6,0.8-1.2,1.2-1.8c7.3-10.6,12.9-22.3,12.9-22.3s0.6,3.6,2.3,9.5c0.9,3,2.6,6.3,4.2,9.5 c-6.8,5.6-11.1,12-12.6,16.3c-2.7,7.8-0.6,11.4,3.4,12.2c1.8,0.4,4.4-0.5,6.3-1.3c2.4-0.8,5.3-2.1,8-4.1c4.6-3.4,9-8.2,8.8-14.6 c-0.1-2.9-0.9-5.8-2-8.6c5.8-2.4,13.3-3.8,22.8-2.6c20.5,2.4,24.6,15.2,23.8,20.6c-0.8,5.3-5.1,8.3-6.5,9.2 c-1.4,0.9-1.9,1.2-1.8,1.8c0.2,1,0.8,0.9,2.1,0.7c1.7-0.3,10.8-4.4,11.2-14.2C246.5,154.8,234.5,141,213.1,141.2L213.1,141.2z M55,194.5c-6.8,7.4-16.3,10.2-20.4,7.8c-4.4-2.5-2.7-13.5,5.7-21.3c5.1-4.8,11.7-9.2,16-11.9c1-0.6,2.4-1.5,4.2-2.5 c0.3-0.2,0.5-0.3,0.5-0.3c0.3-0.2,0.7-0.4,1.1-0.7C65,176.8,62.1,186.7,55,194.5z M104.5,160.8c-2.3,5.8-7.3,20.6-10.3,19.7 c-2.6-0.7-4.2-11.9-0.5-23c1.8-5.6,5.8-12.2,8.1-14.8c3.7-4.2,7.8-5.5,8.8-3.8C111.7,141.2,106,157.2,104.5,160.8z M145.4,180.3 c-1,0.5-1.9,0.9-2.3,0.6c-0.3-0.2,0.4-0.9,0.4-0.9s5.1-5.5,7.1-8c1.2-1.5,2.5-3.2,4-5.1v0.6C154.6,174.1,148.2,178.5,145.4,180.3 L145.4,180.3z M176.9,173.1c-0.7-0.6-0.7-2.3,1.8-7.6c1-2.1,3.2-5.7,7-9c0.5,1.4,0.7,2.7,0.7,4 C186.4,168.7,180.5,171.9,176.9,173.1z"/></g>
</svg>