<!--?xml version="1.0" encoding="utf-8"?-->
<!-- Svg Vector Icons : http://www.onlinewebfonts.com/icon -->

<svg version="1.1" xmlns="http://www.w3.org/2000/svg" xmlns:xlink="http://www.w3.org/1999/xlink" x="0px" y="0px" viewBox="0 0 256 256" enable-background="new 0 0 256 256" xml:space="preserve">
<metadata> Svg Vector Icons : http://www.onlinewebfonts.com/icon </metadata>
<g><g><path fill="#023353" data-title="Layer 0" xs="0" d="M89,141.7c6.5-6.5,18.3-4.5,28.5-7.5c5.4-1.6,9.1-4.7,13.4-7v2.7c-0.4,0.6-0.2,0.1-0.5,1.1c-6.2,3.8-12.7,6.8-21,9.2c-6.4,1.8-14.1,1-16.1,7c-0.7,0.9-0.8,2.2-0.5,2.7v0.5h0.5v-0.5c7.8-8.5,14.4-3.3,26.4-6.5c6.4-1.7,10.9-4.3,15.1-8.1c2.2-1.9,7.1-5.9,5.4-9.7c-0.3-2-0.9-2.3-1.6-3.8h1.1c0.8,1.4-0.1,0.6,1.6,1.1c1-16.2-11-25.1-26.9-18.3c-7.2,3.1-19,14.7-21,23.7h1.1c1.5-2.5,2.5-1.3,4.3-3.2c10.9-11.9,26.7-13.6,39.8-4.8c-0.5,0.6,0,0-0.5,0.5v0.5c-21.5-13.2-42.3,4.6-50,20.4L89,141.7L89,141.7z"/><path fill="#023353" data-title="Layer 1" xs="1" d="M166.5,147.1c-1.4-0.4-2.9-0.7-4.3-1.1c-1.1,0.7-3.5,0.6-5.4,0.5v1.1h2.1C160.5,148.8,165.6,148.6,166.5,147.1z"/><path fill="#023353" data-title="Layer 2" xs="2" d="M161.1,164.3c0.8,1,0.4,1.4,1.6,2.1v-3.8c0.6-0.9,0.6-1.2,0-2.1C161.5,161.9,161.2,161.6,161.1,164.3z"/><path fill="#023353" data-title="Layer 3" xs="3" d="M132.6,188.5h4.3c0.5-0.6,0,0,0.5-0.5v-0.5h-4.8V188.5L132.6,188.5z"/><path fill="#023353" data-title="Layer 4" xs="4" d="M89,62.6c3.7-3.5,8.1-6.3,11.8-9.7c-0.5-1.3-0.2-0.9-1.1-1.6c-4,3.7-10.8,4-15.1,7.5C86.4,60.2,86.5,62,89,62.6z"/><path fill="#023353" data-title="Layer 5" xs="5" d="M87.9,72.3c-2.7-0.8-3.9-2.8-6.5-3.8c-0.2,1.9,0.3,1.3-1.1,2.1v-0.5c-0.4-0.6-0.3-0.5-0.5-1.6c0.6-0.7,0.8-1.5,1.1-2.7H82c1.3,2.1,6.3,6.4,8.6,5.4c1.7-0.6,1.2-0.2,1.6-2.1c-3.7-2.6-8.4-10.9-12.9-11.3c-2.5,4.1-5,8.3-7.5,12.4c0.7,1.6,1.3,2.7,1.6,4.8h-0.5v-1.1c-3-2.5-7.2-11.9-9.1-15.6h-1.1v3.2c2.1,7.2,4.3,14.4,6.5,21.5C72.1,82.7,86.9,74.3,87.9,72.3z"/><path fill="#023353" data-title="Layer 6" xs="6" d="M167,150.3h-2.7c0,2.8-0.7,3.6-1.6,5.4h-0.5v-1.6c0.7-0.7,0.7-1,1.1-2.1c-3.5-2.1-8.9-3.1-12.4-5.4c-2.5-1.6-6.1-4.2-8.1-6.5c-1.3-1.4-1.3-2.8-3.2-3.8c-1.2,4.8-5.5,7.8-11.3,8.1v-0.5h0.5c1.2-1.2,2-1.3,2.7-3.2h-1.6c-7.1,6.3-31.1,1.8-34.4,10.8c-0.4,0.6-0.3,0.5-0.5,1.6c2,2.2,2.7,7.3,5.4,8.6h3.2c1.3,0.8,2,4.3,3.2,5.4c3.7,3.3,8,5.4,11.3,9.2c3.2,3.6,3.9,8,9.1,9.7c1.8,0.6,4.9-0.3,5.9-0.5c11.4-2.7,17.9-6,20.4-17.2H152c-0.9,0.6-1.8,0.6-2.7,0h1.1c2.5-2,5.7-2.7,7.5-5.4c0.7-1,0.6-3.2,1.6-3.8h3.2C165.1,157.7,166.8,153.7,167,150.3z M100.9,157.8v-1.1c-2.2-1-3.1-1.5-3.2-4.8c0.5,0.2,1.1,0.4,1.6,0.5c0.4,2.9,1.6,2.8,2.1,5.4L100.9,157.8L100.9,157.8z M108.4,150.9h0.5c0.9-1.4,1.2-1.8,3.2-2.1c1.7,1.1,11.3,1.6,14,1.6c1.1-1.4,2.1-2.9,3.2-4.3c1.7,2.7-1.7,5.1-2.7,7c2.5,2.1,2.1,6.5,1.6,10.2c1,0.6,1.5,1.2,2.1,2.1c2.6-1.5,2.7-3.9,6.5-4.3v0.5c-2.9,2-2.8,5.6-7.5,5.9c-1.2-1.8-3-2.6-4.3-4.3c3.1-2,2-5.8,1.1-9.2c-1.7-1-1.9-1.5-4.8-1.6c-2.6-1.7-8.7-1.2-12.9-1.1L108.4,150.9L108.4,150.9z M108.9,155.1c0.9-0.3,0.5-0.1,1.1-0.5c5.5,0,8.5,0,14,0v0.5h-0.5C120.1,157.6,112.4,157.5,108.9,155.1z M137.4,174.5h-1.1c-3.3-2.3-6.7,0.2-9.7,1.1c-0.7,1.6-1.4,3.2-2.1,4.8v-0.5c-0.6-0.8-0.6-2.2-0.5-3.8c1.1-1,1-1.5,2.7-2.1c1.2-0.8,3.6-0.8,4.8-1.6c3.1,0,4,0.7,5.9,1.6L137.4,174.5L137.4,174.5z M140.1,169.1H139c0,0-9.1,2.2-9.2,2.1c-1.3-0.3-1.7-2.3-4.3-1.6c-1.3,0.3-2.8,1.1-5.4,1.1v-0.5h0.5c4.6-4.8,12.4,1.8,17.7-2.7c1.3,0.7,0.4-0.2,1.1,1.1h0.5L140.1,169.1L140.1,169.1z M153.6,154.6c-2.8,1.7-3.2,3.2-8.1,3.2c-1.3-1.2-4-1.7-5.9-2.1V153c-4.1-0.4-6-2.4-5.9-7h0.5v0.5c1.4,2,0.5,3.3,3.8,3.8c3.1,2.1,11.2,1.1,15.1,0.5v0.5h-1.1c-2.5,1.8-10.4,1.5-11.3,2.7c2.2,1.4,3,2.2,7,2.1c1.4-1,4.2-1.7,5.9-2.1L153.6,154.6L153.6,154.6z"/><path fill="#023353" data-title="Layer 7" xs="7" d="M89.6,63.7v1.1c1.6,1.1,3.3,3.2,4.3,4.8c1.3-0.6,2-0.8,2.7-2.1c-1.4-2-1.3-4.9-3.2-6.5C92.3,62.1,91,63,89.6,63.7z"/><path fill="#023353" data-title="Layer 8" xs="8" d="M72.3,101.9h1.1c1.8,1.3,9.9,3.3,11.3,2.7c2.2-2.5,3-10.8,4.8-12.9c1.9-2.1,6.2-3.2,8.1-5.9c2.9-4.3,4-8.9,7-12.9c1.9-2.6,4.4-3.1,5.4-7c-0.6-0.5-0.6-0.4-1.1-1.1h-1.6c-2.5,3.1-6.7,3.2-10.2,5.4c-8.6,5.4-17.6,11-26.4,16.1c1.1,2.5,2.5,6.2,4.3,8.1C73.9,96.7,72.8,98.8,72.3,101.9z"/><path fill="#023353" data-title="Layer 9" xs="9" d="M142.3,203c-2.5,2.4-4.1,3.7-4.3,8.6c0.9,0.5,0.9,0.7,2.1,1.1c0.5-0.4,1.5-0.8,2.1-1.1c1.2-1.7,3.8-4.8,2.7-7C144.2,203.3,143.9,203.4,142.3,203z"/><path fill="#023353" data-title="Layer 10" xs="10" d="M177.2,206.3c-0.4,0.6-0.2,0.1-0.5,1.1h0.5c1.3-1.3,2.5-1.3,3.2-3.2c0.4-0.6,0.3-0.5,0.5-1.6h-2.1C177.9,204,177.5,203.8,177.2,206.3z"/><path fill="#023353" data-title="Layer 11" xs="11" d="M94.4,211.6c1.1,0.6,1,0.8,2.7,1.1c1.4-1.5,3-2,3.8-4.3c0.9-1.1,1-2.2,1.1-4.3c-1.1-0.4-2.1-0.7-3.2-1.1C96.3,205.5,94.7,206.9,94.4,211.6z"/><path fill="#023353" data-title="Layer 12" xs="12" d="M179.9,93.3c0.4-0.6,0.4-0.9,0.5-2.1c-1.2-1.4-5.6-10.6-4.8-13.4c0.7-2.8,1.6-7.4,0.5-11.3c-2.7-9.5-7-18.9-12.9-25.3h-1.1v1.1c-0.5,3.8,4.3,9.8,4.8,15.6h-1.1c-1.4-2.8-2.6-0.9-4.8-2.1c0.8-0.6,1.1-0.8,1.6-1.6c-5.7-4.4-12.2-12-21-12.9v2.1c4.3,2.4,16.3,9.6,17.2,14.5h-0.5c-5-5.2-12.2-8.3-17.2-13.4H139c0.6,6.4,13.6,13.1,15.6,19.9H153c-1.7-2.1-14.5-9.9-17.7-10.2v1.6c5.9,3.8,11,9.4,15.6,14.5c2.1-0.6,4.3-1.6,7-2.1v0.5h-0.5c-1.5,1.6-3.9,3.3-6.5,3.8c-2.6-1.8-12.1-0.3-14,1.1c-0.4,0.6-0.3,0.5-0.5,1.6h0.5v0.5c8,0.4,11.2,4,16.1,7c2.4,1.5,5.9,0.7,8.6,2.1c3.4,1.9,5.4,8.3,7,12.4C172.4,95.8,176.1,94.5,179.9,93.3z"/><path fill="#023353" data-title="Layer 13" xs="13" d="M143.4,118c8.9-0.2,12.8,1.8,18.3,4.3c-1.9-4.2-11.9-15.7-18.3-10.8c-0.4,0.6-0.3,0.5-0.5,1.6C143.5,114.2,143.4,116.3,143.4,118z"/><path fill="#023353" data-title="Layer 14" xs="14" d="M163.2,143.3c2.2-0.5,6.8,2.2,8.6-0.5h-1.6c-4.8-0.9-9.7-1.8-14.5-2.7c-5.7-2.5-9.3-9.2-14-12.9C137.4,138.5,152.2,145.5,163.2,143.3z"/><path fill="#023353" data-title="Layer 15" xs="15" d="M143.4,119.7c-0.1,4.1-0.2,5.5,0.5,8.6c7.5,4.5,12,11.8,23.7,12.4c0.5-0.6,0,0,0.5-0.5c-1-2.8-1.6-5.9-3.2-8.1c-1.9-2.4-5.6-3.5-7.5-5.9c-1.1-0.2-1-0.1-1.6-0.5c-0.9-0.3-0.5-0.1-1.1-0.5h1.1v0.5c1.1,0.2,1,0.1,1.6,0.5h1.1c1.5,1.4,4,2.3,5.9,3.2v-1.1h-0.5C161.7,121.7,152.5,119.5,143.4,119.7z M154.1,125c-0.9-0.3-0.5-0.1-1.1-0.5h1.1V125z"/><path fill="#023353" data-title="Layer 16" xs="16" d="M160,103c2.7,2.3,3.1,7.5,6.5,9.1c5.7-4.9,18.9-4.4,24.8-9.1c1.4-2.2,1.1-7.4,1.6-10.2h-1.6c-4.1,2.7-16.8,5.3-22.1,7C166.1,100.7,161.5,100.5,160,103z M189.1,95.5c1.8,0.6,1.8,0.6,2.1,2.7c-0.4,0.6-0.2,0.1-0.5,1.1c-0.9,0.3-0.5,0.1-1.1,0.5c-0.9-0.3-0.5-0.1-1.1-0.5c-1-0.9-0.9-0.8-1.1-2.7C188.1,96.2,188.6,95.9,189.1,95.5z"/><path fill="#023353" data-title="Layer 17" xs="17" d="M131,190.7c-2.4,0.7-5.3,2.5-8.1,3.2v0.5c5.4,0.6,7.9,4,12.9,4.8c1.9-2.6,5.2-3.8,7-6.5c-2.1-0.9-4.3-1.8-6.5-2.7C135,190.9,132.9,190.1,131,190.7z"/><path fill="#023353" data-title="Layer 18" xs="18" d="M129.9,202.5c-1,1.6-1.8,2.3-2.1,4.8h1.1c1.7-1.6,3.2-1.3,3.8-4.3h-1.1C130.9,202.6,131,202.7,129.9,202.5z"/><path fill="#023353" data-title="Layer 19" xs="19" d="M119.7,195.5c1.2,1.3,3.6,1.5,5.4,2.1C123.8,196.1,122.5,195.6,119.7,195.5z"/><path fill="#023353" data-title="Layer 20" xs="20" d="M177.2,110c-3,1.9-7,0.5-8.1,4.3c0.5,2.2-2.5,2.5-1.6,4.8c0.7,2.8,1.9,3.5,2.1,4.8c0.5,2-2.7,4.9-2.1,7.5c0.6,2.8,2.1,5,2.1,9.2c6,0.6,5.9,3.4,10.2,5.9v0.5h-1.6c-2.1-1.6-7.3-1.6-10.8-1.6v1.6h1.6c1.4,3.8,6.3,3.8,7,10.2c0.4,0.6,0.4,0.9,0.5,2.1c0.4,0.6,0.3,0.5,0.5,1.6h-0.5v-1.6h-0.5c-0.1-1.7-0.3-0.8,0-2.1h-1.1c0.1-1.3,0.4-0.3,0-1.6c-0.4,0.2-0.7,0.4-1.1,0.5v-0.5c-0.7-0.7,0.2-0.7-1.1-1.6c-0.8-0.8-2.3-1.6-4.3-2.1v4.3c-2,3.1-0.3,12.2,0,15.6h-0.5v-1.1c-2.1-1.8-1.5-6.6-3.8-8.1c-0.6,5.2-0.6,9,0,14h-0.5v-1.1c-2.1-2.2-3.3-7.5-3.2-13.4h-1.6c-1.4,5.2-7.7,10-7,14.5c0.4,2.9,2.7,5.8,3.2,9.2c5.3-0.7,15.5-6.1,20.4-8.6c-2.3-7.8,3.6-13.3,5.4-18.3c1.9-5.3,0.6-10.5,2.7-15.1c3.2-6.8,6.8-12.2,8.6-20.4c-2.2-1.1-6.1-3.5-7-5.9h2.1c0.8,0.5,2.6,0.5,4.3,1.1v-3.8c-1.2-1.4-0.5-2,0-4.8c-2.4-1.2-3-3.2-5.9-3.8C183.9,107.8,179.2,108.7,177.2,110z"/><path fill="#023353" data-title="Layer 21" xs="21" d="M227.5,10H28.4C18.3,10,10,18.3,10,28.4v199.1c0,10.2,8.3,18.4,18.4,18.4h199.1c10.2,0,18.4-8.3,18.4-18.4V28.4C246,18.3,237.7,10,227.5,10z M89.6,208.9v0.5h0.5c-0.2,0.5-0.4,1.1-0.5,1.6c-2.9,1.7-5.4,3.4-9.7,3.8c-4-6.3,4.4-18.7,10.2-14c0.4,0.6,0.3,0.5,0.5,1.6c-0.6,0.5-0.6,0.4-1.1,1.1c-1.9-0.4-2.9-0.4-4.8,0c-1.4,2.4-2.6,3.6-2.7,7.5C85.1,210.7,86.5,209.4,89.6,208.9z M91.7,208.4c1.1-1.4,1.1-3.3,2.1-4.8c1-1.4,3.1-2,4.3-3.2c1.5,0,2.5,0,3.2-0.5h1.6c0.7,1.1,1.1,1.2,1.6,2.7c3.5,5.2-5.8,13-11.3,12.9C92.1,213.4,91.6,212.1,91.7,208.4z M118.1,214.9c0-2,0.7-5.7-0.5-7.5c-1.5,2.8-4.2,6.6-8.1,7v-1.1c-1.2-1.8,0.3-2.9-1.1-3.8c-0.7,2.7-3.3,6.6-6.5,7c-0.3-0.8-0.4-0.9-0.5-2.1c4.2-3.1,5.6-11.8,11.3-12.9c0.5,1.3,0.6,3.3,0.5,5.4c-0.4,0.6-0.3,0.5-0.5,1.6h1.1v-0.5c2-2.3,3.9-4.7,5.9-7c1.1,0.2,1,0.1,1.6,0.5c0.7,1.1,0.6,3.5,0.5,5.4c-1.5,2.1,0,5.3,0.5,7C120.5,214.8,120.2,215.1,118.1,214.9z M157.9,212.7c-0.7,2.3-1.8,2.3-4.8,2.1c-2.4-1.8-4.8-1.7-5.9-4.8h0.5c0.8-1.3,0.2-0.8,2.1-1.1c1.1,2.2,2.3,3,5.4,3.2v-1.1c-2.2-1.7-4.2-4.3-4.3-8.1c1.2-0.7,2.7-1.7,3.8-2.7c1.9,0.2,2.6,0.7,4.3,1.1c0.3,0.9,0.1,0.5,0.5,1.1c-0.3,0.9-0.1,0.5-0.5,1.1c-0.6,0.4-0.5,0.3-1.6,0.5c-0.9-0.8-1.1-0.8-2.7-1.1c-0.5,1-0.7,0.9-1.1,2.1C155.3,206.4,158.8,210.7,157.9,212.7z M170.2,213.3h-0.5v0.5c-4.3,0-6.4,0.9-10.2,1.1c0-5.5,2-10.7,5.4-12.9c1.7-1.3,5-1.2,8.1-1.1c0.5,0.6,0,0,0.5,0.5v1.1c-1.3,0.7-1.5,1-3.8,1.1c-0.9,0.6-3.4,0.5-4.3,1.1c-0.4,0.6-0.4,0.9-0.5,2.1h0.5c0.9-0.6,2.6-0.6,4.3-0.5v2.1h-0.6v0.5c-2,0.4-3.9,0.7-5.9,1.1v1.1h3.2c1.3-0.8,2-0.2,3.8,0L170.2,213.3L170.2,213.3z M183.2,215.4c-2-2.2-4.6-5.3-7-7c-0.4,2.1-0.7,4.3-1.1,6.5h-2.7c-0.2-0.5-0.4-1.1-0.5-1.6c2.2-3.4,1.2-9.9,4.3-12.4c1.6-1,2.2-0.1,3.8-1.6c1.1,0.2,2.1,0.4,3.2,0.5c0.8,1.4,1.1,2.3,1.1,4.8c-0.8,0.7-3.3,3.3-2.7,3.8c1.4,2.7,4.3,3.2,5.4,5.9C185.6,215,185.4,215.3,183.2,215.4z M195,89.5c-1.3,2-1.1,10.7-1.1,14c-1.5,0.6-3.5,1.3-4.3,2.7c1.8,1.2,3.6,3.2,4.3,5.4c-2.2,2.4,1.4,10.7,0,15.1c-1.7,5.4-5.2,10.7-7,16.1c-2.1,6.4-1.2,12.6-3.2,19.4c-1.2,3.9-3.1,7-3.8,12.4h0.5v0.5c2-0.5,3.9-1.1,5.9-1.6v1.1c-3.3,1.2-4.8,4.6-7.5,6.5v-1.1c0.9-0.9,1.5-2,2.1-3.2h-1.1c-5.7,5-25.3,6.8-25.3,16.1h1.1c1.8-2.2,4.8-2.4,7.5-3.8c6.8-3.5,15.3-8.4,24.2-9.2v0.5h-1.1c-2.2,2.2-5.2,3.3-7,5.9c1.8-0.7,5.6-1.8,7.5-0.5c-5.1,0.2-9.4,2.4-13.4,3.8c-10.1,3.3-18.4,6-26.9,10.2c1.1,1.7,1.9,2,2.1,4.8c-3.6,5.4-3.2,10.8-12.4,10.8c-1-1.9-1.1-4.3-1.1-7.5c1.8-2.3,2.4-5.4,4.8-7c3.3-2.2,6.9-2.7,9.7-5.4c-1.6-0.5-3.2-1.1-4.8-1.6c-1.9,3-4.8,4.8-7.5,7c-1.6,1.3-1,3.1-2.1,4.8c-1.6,2.4-5.9,3.6-8.6,4.8c0,3.2-0.2,4.1-3.2,4.3c-0.3-0.8-0.4-0.9-0.5-2.1c2.4-3.2,3-9,4.8-12.4c-8.6-1.8-17.2-3.6-25.8-5.4c-6.8-1.6-19.8,2.1-24.8-1.1h1.1c5.4-3.4,25-0.7,32.3-0.5v-0.5c-6.8-3.6-19.7-7.2-29-7.5v0.5H82c1.3,1.5,3,2.8,4.8,3.8v0.5h-1.1c-2.4-2.1-8.2-3.1-9.7-5.9c7.9-0.1,13.7,1.4,20.4,1.6v-0.5c-0.1-0.1-2.7-2.1-2.7-2.1c-1.2-1.6,1.7-2.2,0.5-3.2c-4.1-5.7-12.6-9.3-18.3-13.4c-1.8-1.3-1.9-4.8-3.8-5.9c-1.1-0.7-3.6-0.1-4.3-1.1v-18.8c-1.7-2.8,0.3-10.5,0-14.5c-0.1-1.4-1.8-1.8-2.1-2.7c0.2-2.3,0.4-4.7,0.5-7c-1.6-0.2-3.2-0.4-4.8-0.5c0.4-5.4,0.7-10.8,1.1-16.1c3.3,0.1,5.3,1,8.1,1.6c0.2-2.6,1.7-5.5,1.1-7c-0.6-2.4-1.7-4.5-2.7-6.5c-0.7,0.2-1.4,0.4-2.1,0.5c-0.2-1.6-0.3-1.8-1.1-2.7c0.7-0.9,1.5-1.3,2.1-2.1c-2.9-3.3-7.5-23-7-28.5h2.1c1.4,2.3,6,10.8,8.1,11.8v-0.5C75,63.3,75.7,55.5,82,55.1c2.9,3.8,12.5-2.1,15.6-3.8c1.3-0.7,4.4-2.1,4.8-1.6c1,0.8,0.7,0.5,1.1,2.1c-2.7,2.6-4.6,5.7-8.1,7.5c0.4,2.4,1.3,6.5,3.2,7.5c2.2-2.2,5.3-3.1,8.1-4.8c3.9-2.4,7.8-5.7,11.8-8.1c1.3-0.8,6.2-3.6,6.5-3.2c0.4,0.2,0.7,0.4,1.1,0.5c-0.5,0.6,0,0-0.5,0.5c-2.1,2.7-13.1,9.8-16.7,10.8v1.1c2.5,0.5,2.4,1.3,3.8,2.7c-0.3,0.9-0.1,0.5-0.5,1.1c-1.2,3.3-4.6,4.4-6.5,7c-3.3,4.5-4.3,10.4-7.5,15.1c-1.5,2.2-4.3,2.1-6.5,3.8c-2.6,1.9-4.1,8.2-4.3,12.4c2.8,0.2,8.5,1.2,9.7,3.2c-2,2.7-1.3,7.9-3.2,10.8c-0.7,0.4-2.6,0.6-3.2,1.1c0.8,1.3,0.7,3.7,1.6,4.8v-1.1c2.1-2.3,3-5.5,4.8-8.1c5-6.9,19.8-20.2,34.4-15.1c4.5,1.6,8,7.2,11.8,8.1c2.8-1.8,7.9,0.1,9.7,1.1c4.8,2.7,8.5,5.6,11.3,10.2c1,1.6,1.1,3.4,2.1,4.8v-1.1c1.2-2-1.1-3.9-1.6-6.5c1-1,1.7-2.3,2.1-3.8c-1.7,0.1-1.7,0.5-2.7,0c-3.5-2.8-6.1-9.8-8.1-14c3.2-0.9,6.5-1.8,9.7-2.7V96l-1.6-4.8c-2.9-3.9-8.2-4.4-12.4-7c-2-1.3-3.8-3.9-5.9-4.8c-3.4-1.6-8.4-1.5-11.3-3.8c-0.4-0.6-0.4-0.9-0.5-2.1c2.9-2.6,7.5-3.7,12.9-3.8v-0.5c-2.9-3.1-5.7-6.1-8.6-9.2c-2-1.5-4.3-2-5.4-4.3c-0.5-0.7-0.5-1.3-0.5-2.7c1.4-0.8,2.3-1.1,4.8-1.1c2.5,2.1,6.5,4.9,9.7,5.9v-0.5c-4-2.6-7.3-6.9-10.8-10.2v-3.8h0.5v-0.5h1.6c0.2-0.9,0.4-1.8,0.5-2.7c1.1-0.4,2.5-0.5,4.3-0.5c2.9,1.3,5.7,2.5,8.6,3.8c4.3,2.6,8.2,6.4,12.4,9.1c-1.6-3.2-7.7-12.5-0.5-12.9c0.7,0.7,1,0.7,2.1,1.1c1.9,6.3,7.9,12.4,10.2,19.4c0.9,5,1.8,10,2.7,15.1c0.5,3.3-1.3,2.7,0,6.5c1.3,3.8,1.5,10.1,5.9,10.8c2.5-1.7,7.1-2.6,10.2-3.2L195,89.5L195,89.5z"/><path fill="#023353" data-title="Layer 22" xs="22" d="M150.3,178.8c-2,4-6.5,5-8.1,8.1c3.5,0,5.3,0.9,8.1,1.6c0.2,1.3,0.2,1.3,0.5,2.1h-2.1c-2.2-1.7-6.7-2.6-10.2-2.7v1.1c5.1,0.6,8.3,3.5,12.9,4.3c0.6-0.8,0.8-1.1,1.6-1.6C151.4,186.4,154.3,183,150.3,178.8z"/><path fill="#023353" data-title="Layer 23" xs="23" d="M94.4,110c-3.9-2.9-23.5-6.7-29.6-8.1v3.2c-1.1,1.7-1.1,6.2-1.1,8.6c9.6,1,18.9,3.5,29,3.8C93,114.9,95.1,111.1,94.4,110z M69.6,111.6c-0.5,0.1-0.2,0.4-0.5,0c-3-0.9-2.3-3.3-1.1-5.4h2.7c0.2,0.5,0.4,1.1,0.5,1.6C72.4,109.5,71.4,111,69.6,111.6z"/><path fill="#023353" data-title="Layer 24" xs="24" d="M127.7,188.5h-3.2c-1.1,0.7-3.5,0.6-5.4,0.5v-1.1c2.5,0,5.5-0.4,6.5-2.1c-5.2-1.4-5.6-5.5-9.1-8.1c-0.5,1.8-1.1,3.6-1.6,5.4c0,0.1,1.1,1.8,1.1,2.1c0,1.2-2.7,2.8-3.2,4.3c1.1,1.3,0.6,4.3,1.6,5.9c0.6,0.4,0.9,0.4,2.1,0.5C119,192.6,125.8,192.2,127.7,188.5z"/><path fill="#023353" data-title="Layer 25" xs="25" d="M114.8,175.1c-2.7-1.8-4.3-3.9-7.5-5.4c-0.8,2.7-3.2,5.6-5.4,7v-1.6c1.9-2.9,0.7-8.9,0-11.8c-3.8-0.9-5-3.7-8.1-4.8v0.5c0.6,0.9,1.1,2.9,1.6,3.8h-1.1c-1.4-2.2-4-3.7-4.8-6.5c-0.9-3.1,0.8-9.7-1.6-11.3c-1.1,3.5-3.8,5.4-4.8,9.1h-0.5v-4.3c2.3-2.9,2.7-7.8,4.3-11.3c0.8-1.8,3.3-4.2,3.8-5.9c-0.7-4.5-1.4-9-2.1-13.4c-5.9-0.7-11.8-1.4-17.7-2.1c-0.5,7.7,1.6,15.9,0.5,27.4c-0.4,4.3-1.7,9.9-1.1,13.4c1.6,0.2,1.8,0.3,2.7,1.1c1.1-0.7,1.2-1.1,2.7-1.6v-1.1c0.4,0.6,0.2,0.1,0.5,1.1h-0.5v1.6c-0.6,0.8-1.1,1.6-0.5,2.1c4.9,7.9,22.1,11.8,22.1,22.6c1.1,0.9,1,1.2,1.1,3.2c4.5,0.5,8.4,2.2,12.4,3.2c0.9-3.4,2.9-2.9,3.2-7C111.7,180.4,114.4,178.6,114.8,175.1z"/><path fill="#023353" data-title="Layer 26" xs="26" d="M157.3,126.1"/><path fill="#023353" data-title="Layer 27" xs="27" d="M155.7,125.6"/><path fill="#023353" data-title="Layer 28" xs="28" d="M176.7,161.1h0.5H176.7z"/><path fill="#023353" data-title="Layer 29" xs="29" d="M176.7,159.5"/><path fill="#023353" data-title="Layer 30" xs="30" d="M75.6,156.2v1.1h0.5C75.8,156.4,76,156.8,75.6,156.2z"/><path fill="#023353" data-title="Layer 31" xs="31" d="M176.1,157.3"/><path fill="#023353" data-title="Layer 32" xs="32" d="M176.1,159.5h0.5H176.1z"/></g></g>
</svg>