<!--?xml version="1.0" encoding="utf-8"?-->
<!-- Svg Vector Icons : http://www.onlinewebfonts.com/icon -->

<svg version="1.1" xmlns="http://www.w3.org/2000/svg" xmlns:xlink="http://www.w3.org/1999/xlink" x="0px" y="0px" viewBox="0 0 256 256" enable-background="new 0 0 256 256" xml:space="preserve">
<metadata> Svg Vector Icons : http://www.onlinewebfonts.com/icon </metadata>
<g> <path fill="#023353" data-title="Layer 0" xs="0" d="M244.9,141.5c-0.6-0.7-1.3-1.4-1.9-2.1c-1.8-2.8-4-5.2-6.5-7.2c-2-1.6-6.4-3.7-7.2-6.3l-0.1-0.2 c1.4-0.1,3-0.7,4.3-1.1c2.1-0.6,4.1-0.5,6.3-1.1c1-0.3,2-0.6,3-1v-0.6c-1.1-1.3-2-3-3.1-4.2c-3.2-3.2-6.7-6.1-10.3-8.8 c-2-1.4-4.5-2.4-6.5-3.6c-0.7-0.5-2-0.6-2.4-1.4c-1.1-1.6-1.8-3.6-2.5-5.5c-1.8-4.1-3.5-8.2-5.1-12.4c-1.1-2.8-1.8-5.6-3.2-8.1 c-6.4-12.1-13.4-19.5-24.2-26.7c-2.3-1.5-5.1-2.1-8-2.9c-1.6-0.1-3.1-0.2-4.7-0.3c-1-0.5-2-1.8-2.9-2.5c-3.6-2.5-12.7-8.1-15.4-0.8 c-1.7,4.6,2.5,9.2,3.9,11.5c1.1,1.6,2.4,3.5,3.2,5.4c0.5,1.2,0.6,2.5,1,3.8c1,3.2,1.9,6.6,3.3,9.6c0.7,1.5,1.4,3.1,2.3,4.4 c0.5,0.8,1.4,1.2,1.6,2.4c-0.9,1.4-1,3.6-1.4,5.4c-2.2,8.1-1.4,18,1.8,24c1,1.7,3.4,5.7,6.6,4.2c2.8-1.3,2.2-5.4,3-8.9 c0.2-0.8,0.1-1.4,0.5-2v0.2c0.9,2,1.8,3.9,2.5,5.9c1.9,3.5,5.3,7.1,8.1,9.5c1.5,1.3,2.7,3.5,4.6,4.3v-0.2h-0.1 c-0.4-0.6-1-0.9-1.4-1.4c-1.2-1.3-2.3-2.8-3.3-4.3c-2.6-4.1-5-8.5-7-13c-1-2.2-1.9-4.7-2.7-6.9c-0.4-0.8-0.4-2.1-1-2.5 c-1,1.6-2.3,2.9-3,4.8c-1.2,3.1-1.3,6.9-1.7,10.8c-0.2,0.1-0.1,0-0.2,0.2c-2-0.6-2.7-2.9-3.4-4.9c-1.9-5.1-2.2-13.2-0.6-19 c0.5-1.5,2.3-6.2,1.6-7.6c-0.4-1.4-1.6-2.1-2.3-3.2c-0.9-1.4-1.6-2.9-2.2-4.6c-1.5-4-2.2-8.4-3.9-12.4c-0.7-1.8-2.1-3.8-3.1-5.5 c-1.2-1.9-2.5-3.3-3.4-5.5c-0.3-0.8-0.7-2.1-0.2-2.9c0.1-0.6,0.4-0.8,0.9-1c0.8-0.8,3.2,0.2,3.9,0.7c2.3,1.1,4.3,2.1,6.2,3.6 c0.9,0.7,1.8,2.1,2.9,2.4h1.3c2,0.5,4.3,0.2,6.1,0.8c3.3,1.2,6.3,3,9,4.9c8.3,6,15,14.4,19.5,24.4c0.7,1.6,1.1,3.2,1.7,4.9 c1.3,3.5,2.9,7,4.3,10.4c1.3,3.3,2.5,6.8,4.5,9.6c1,1.5,4.7,2.3,6.4,3c1.3,0.6,3.2,1.2,4.3,2c2.1,1.5,4.2,3.2,6.3,4.8 c1,0.8,4.1,2.6,4.3,4c-5-0.2-8.9,0.5-12.1,2c-1,0.5-2.4,0.5-2.5,1.8c0.5,0.6,0.6,1.5,1,2.3c0.7,1.4,2,3.3,3.2,4.3 c1.3,1.2,2.6,2.3,4,3.3c2.4,1.7,5.2,2.7,7.6,4.4c1.4,1,2.7,2.3,4.1,3.3c0.7,0.5,1.1,1.5,2,1.8v-0.2 C245.5,143.1,245.3,142.2,244.9,141.5L244.9,141.5z M50.8,140.5l-12.6,43.3h-0.1l-12.5-43.3H14.9c-2,18.3-4.4,38-4.9,58.9h9.6 c0.2-15.7,0.1-29.4,1.1-45h0.1l12.4,45h8.3l12.2-45h0.1c1.4,15.6,1.6,29.3,1.8,45h10.4c-0.4-17.8-2.8-37.4-5-59L50.8,140.5 L50.8,140.5z M86.5,191c-0.2-2.4-0.5-4.2-1.9-10l-6.8-25.2H67.5l9.5,33.6c1.4,5.1,2.1,8.4,2.1,10c0,2.4-0.1,3.2-1,4.5 c-1.5,1.6-3.5,2.4-6,2.4c-1.4,0-2.6-0.1-3.6-0.3v7.3c2.1,1,3.8,1.5,5.3,1.5c5.4,0,10.3-3.8,14.8-11.4c5.8-9.9,10.4-25.7,14-47.5 h-10C91.1,169.3,90.3,179.7,86.5,191z M213.7,140.5h-10v58.9h24.6v-9.2h-14.6V140.5z M187.7,195.5c0.8-0.8,1.6-1.7,2.4-2.7 c4.1-5.4,6-13.4,6-24c0-19.5-6.7-29.3-20.1-29.3c-6.6,0-11.7,2.5-15.4,7.4c-4,5.4-6,13.4-6,23.9c0,10.4,1.8,18,5.4,22.8 c3.3,4.4,8.2,6.5,14.8,6.5c2.5,0,4.7-0.4,6.8-1l12.4,8.2l3.4-6.6h0L187.7,195.5z M175.5,189.8c-3.6,0-6.2-1.6-7.9-4.6v-0.1 c-1.8-3.3-2.7-8.7-2.7-16c0-12.8,3.4-19.2,10.3-19.2c3.6,0,6.2,1.6,7.9,4.6c1.8,3.3,2.7,8.6,2.7,15.8 C185.8,183.3,182.4,189.8,175.5,189.8L175.5,189.8z M144.9,170.6c0,0-7.4-4.9-11.1-7.1c-4-2.5-6.6-5.5-6.6-9.1 c0-2.1,1.2-3.8,2.7-5.2c1.4-1.5,3.5-2.2,6.1-2.2c3.4,0.1,6.8,1.7,9.9,3.2l2-7.9c-3.9-2.9-8.3-4.4-13.1-4.4c-4.7,0-8.5,1.5-11.4,4.4 c-2.9,2.9-5.8,8.4-5.8,13.2c0,5.8,2,9.2,5.9,12.6c0,0,7.2,4.7,10.9,7c3.9,2.5,6,5.5,6,9c0,2.5-1,5-2.8,6.5 c-1.8,1.6-3.8,0.9-5.9,0.8c-3.3-0.2-7-1.2-11.1-3.5l-2.2,6.7c4.8,3.7,9.6,5.5,14.7,5.5c5.4,0,9.7-1.6,12.9-4.8 c3.2-3.2,4.8-7.3,4.8-12.3l0.1,0.1C151,177.3,149,173.9,144.9,170.6L144.9,170.6z"/> <path fill="#023353" data-title="Layer 1" xs="1" d="M174.8,59.1c-1.1,0.1-1.8,0.2-2.6,0.4v0.1h0.1c0.5,1.1,1.4,1.9,2,2.9c0.5,1.2,1,2.3,1.4,3.4l0.1-0.2 c0.9-0.7,1.3-1.8,1.3-3.6c-0.4-0.5-0.4-1-0.7-1.5C176.1,60,175.3,59.6,174.8,59.1L174.8,59.1z"/></g>
</svg>