<!--?xml version="1.0" encoding="utf-8"?-->
<!-- Svg Vector Icons : http://www.onlinewebfonts.com/icon -->

<svg version="1.1" xmlns="http://www.w3.org/2000/svg" xmlns:xlink="http://www.w3.org/1999/xlink" x="0px" y="0px" viewBox="0 0 256 256" enable-background="new 0 0 256 256" xml:space="preserve">
<metadata> Svg Vector Icons : http://www.onlinewebfonts.com/icon </metadata>
<g><g><path fill="#023353" data-title="Layer 0" xs="0" d="M111.9,132.6h15.6l-8.2-13.4l-15.1,24.2h-6.9l18.4-28.9c0.9-1.1,2.2-2,3.7-2c1.3,0,2.6,0.9,3.4,2l18.6,28.9h-6.9l-3.2-5.4h-16L111.9,132.6L111.9,132.6z M183.4,138v-25h-5.8v27.4c0,0.9,0.2,1.5,0.9,2.2c0.4,0.4,1.3,0.9,2.2,0.9h26.6l3.4-5.4L183.4,138L183.4,138z M86.7,133.5c5.6,0,10.4-4.5,10.4-10.4c0-5.6-4.7-10.1-10.4-10.1H61.2v30.4H67v-25h19.2c2.8,0,5,2.2,5,4.7c0,2.8-2.2,5-5,5H69.8l17.5,15.3h8.4l-11.7-9.9L86.7,133.5L86.7,133.5z M25.1,143.4c-8.4,0-15.1-6.9-15.1-15.3S16.7,113,25.1,113h17.7c8.4,0,15.1,6.7,15.1,15.1s-6.7,15.3-15.1,15.3H25.1L25.1,143.4z M42.4,138c5.4,0,9.9-4.5,9.9-9.9c0-5.4-4.5-9.7-9.9-9.7H25.6c-5.4,0-9.9,4.3-9.9,9.7c0,5.4,4.5,9.9,9.9,9.9H42.4L42.4,138z M153.4,143.4c-8.4,0-15.1-6.9-15.1-15.3S145,113,153.4,113h21l-3.5,5.4h-17.1c-5.4,0-9.9,4.3-9.9,9.7c0,5.4,4.5,9.9,9.9,9.9h21l-3.2,5.4L153.4,143.4L153.4,143.4z M224.9,138c-4.5,0-8.2-3-9.5-7.1h25l3.4-5.4h-28.5c1.3-4.1,5-7.1,9.5-7.1h17.3l3.4-5.4h-21.2c-8.2,0-15.1,6.7-15.1,15.1c0,8.4,6.9,15.3,15.1,15.3h18.1l3.4-5.4L224.9,138L224.9,138z"/></g></g>
</svg>