<!--?xml version="1.0" encoding="utf-8"?-->
<!-- Svg Vector Icons : http://www.onlinewebfonts.com/icon -->

<svg version="1.1" xmlns="http://www.w3.org/2000/svg" xmlns:xlink="http://www.w3.org/1999/xlink" x="0px" y="0px" viewBox="0 0 256 256" enable-background="new 0 0 256 256" xml:space="preserve">
<metadata> Svg Vector Icons : http://www.onlinewebfonts.com/icon </metadata>
<g><g><path fill="#023353" data-title="Layer 0" xs="0" d="M81.7,106.7H69.2l-5.1,31h11.6c0,0,14.1,0.4,14.8-20.1C91.2,105.8,81.7,106.7,81.7,106.7z M187.7,106.7h-12.4l-5.1,31h11.6c0,0,14.1,0.4,14.8-20.1C197.3,105.8,187.7,106.7,187.7,106.7z M128,54.6C62.8,54.6,10,87.5,10,128c0,40.5,52.8,73.4,118,73.4c65.2,0,118-32.8,118-73.4C246,87.5,193.2,54.6,128,54.6z M75.2,149.2l-12.6-0.1l-3.5,19.5H45.6l12.1-73.4c0,0,17.2,0.3,28.6,0c11.3-0.3,22.4,9.2,17.2,30.6C97.3,151.3,75.2,149.2,75.2,149.2z M135.7,149.2c0,0,3.2-17.1,4.6-28.9c0.6-4.9,3.1-13.1-3.6-13.1c-5.6,0-14.1-0.1-14.1-0.1l-7.1,42.1h-13.3l12.4-73.7h13.6l-3.4,19.7h14.1c0,0,18.6-1.7,16.4,16.4c-2.2,18.2-6.4,37.5-6.4,37.5H135.7L135.7,149.2z M209.6,125.8c-6.2,25.5-28.3,23.4-28.3,23.4l-12.6-0.1l-3.5,19.5h-13.5l12.1-73.4c0,0,17.2,0.3,28.6,0C203.7,95,214.8,104.4,209.6,125.8z"/></g></g>
</svg>