<!--?xml version="1.0" encoding="utf-8"?-->
<!-- Svg Vector Icons : http://www.onlinewebfonts.com/icon -->

<svg version="1.1" xmlns="http://www.w3.org/2000/svg" xmlns:xlink="http://www.w3.org/1999/xlink" x="0px" y="0px" viewBox="0 0 256 256" enable-background="new 0 0 256 256" xml:space="preserve">
<metadata> Svg Vector Icons : http://www.onlinewebfonts.com/icon </metadata>
<g> <path fill="#3e637b" data-title="Layer 0" xs="0" d="M107,128c0,11.6,9.4,21,21,21c11.6,0,21-9.4,21-21c0,0,0,0,0,0c0-11.6-9.4-21-21-21 C116.4,107,107,116.4,107,128z"/> <path fill="#3e637b" data-title="Layer 1" xs="1" d="M69.1,169.8l-4.6-1.2C29.8,159.9,10,145.1,10,128c0-17.1,19.8-32,54.4-40.7l4.6-1.2l1.3,4.6 c3.5,12.1,8,23.8,13.4,35.2l1,2.1l-1,2.1c-5.4,11.3-9.9,23.1-13.4,35.2L69.1,169.8z M62.3,98c-26.3,7.4-42.4,18.7-42.4,30 c0,11.3,16.1,22.6,42.4,30c3.2-10.2,7.1-20.2,11.6-30C69.4,118.2,65.5,108.2,62.3,98z M186.9,169.8l-1.3-4.6 c-3.5-12.1-8-23.8-13.4-35.2l-1-2.1l1-2.1c5.4-11.3,9.9-23.1,13.4-35.2l1.3-4.6l4.7,1.2C226.2,96,246,110.8,246,128 c0,17.1-19.8,32-54.4,40.7L186.9,169.8L186.9,169.8z M182.1,128c4.7,10.2,8.6,20.3,11.6,30c26.3-7.4,42.4-18.7,42.4-30 c0-11.3-16.1-22.6-42.4-30C190.5,108.2,186.6,118.2,182.1,128z"/> <path fill="#3e637b" data-title="Layer 2" xs="2" d="M62.2,98l-1.3-4.6c-9.7-34.3-6.8-58.8,8.1-67.4c14.6-8.4,38,1.5,62.5,26.7l3.3,3.4l-3.3,3.4 c-8.7,9.1-16.7,18.8-23.8,29.2l-1.3,1.9l-2.3,0.2c-12.5,1-25,3-37.2,6L62.2,98L62.2,98z M80.9,32.8c-2.6,0-5,0.6-6.9,1.7 c-9.8,5.6-11.5,25.2-4.8,51.7c10.5-2.3,21.1-4,31.8-4.9c6.2-8.8,12.9-17.1,20.2-25C105.8,41.2,91.3,32.8,80.9,32.8L80.9,32.8z M175.2,233C175.1,233,175.1,233,175.2,233c-14,0-32-10.6-50.7-29.7l-3.3-3.4l3.3-3.4c8.7-9.1,16.7-18.8,23.8-29.2l1.3-1.9l2.3-0.2 c12.6-1,25-3,37.2-6l4.6-1.2l1.3,4.6c9.7,34.3,6.8,58.8-8.1,67.4C183.4,232,179.3,233,175.2,233L175.2,233z M134.9,199.7 c15.3,14.9,29.9,23.4,40.3,23.4h0c2.6,0,5-0.6,6.9-1.7c9.8-5.6,11.5-25.2,4.8-51.7c-10.5,2.3-21.1,4-31.8,4.9 C148.9,183.5,142.1,191.9,134.9,199.7z"/> <path fill="#3e637b" data-title="Layer 3" xs="3" d="M193.8,98l-4.6-1.2c-12.2-3-24.7-5-37.2-6l-2.3-0.2l-1.3-1.9c-7.1-10.4-15.1-20.1-23.8-29.2l-3.3-3.4 l3.3-3.4C149,27.5,172.4,17.5,187,25.9c14.9,8.6,17.8,33.1,8.1,67.4L193.8,98z M155,81.2c11.2,1,21.9,2.7,31.8,4.9 c6.7-26.4,5-46-4.8-51.7c-9.7-5.6-28,3-47.2,21.7C142.1,64.1,148.9,72.4,155,81.2z M80.9,233c-4.2,0.1-8.2-1-11.9-3 c-14.9-8.6-17.8-33.1-8.1-67.4l1.3-4.6l4.6,1.2c11.4,2.9,23.9,4.9,37.2,6l2.3,0.2l1.3,1.9c7.1,10.4,15.1,20.1,23.8,29.2l3.3,3.4 l-3.3,3.4C112.8,222.4,94.9,233,80.9,233L80.9,233z M69.2,169.8c-6.7,26.4-5,46,4.8,51.7c9.7,5.5,28-3,47.2-21.7 c-7.3-7.9-14-16.3-20.2-25C90.3,173.8,79.6,172.1,69.2,169.8z"/> <path fill="#3e637b" data-title="Layer 4" xs="4" d="M128,176c-8.1,0-16.4-0.4-24.7-1l-2.3-0.2l-1.3-1.9c-4.7-6.8-9.1-13.7-13.3-20.9 c-4.1-7.1-7.9-14.5-11.5-21.9l-1-2.1l1-2.1c3.5-7.5,7.3-14.8,11.5-21.9c4.1-7,8.5-14.1,13.3-20.9l1.3-1.9l2.3-0.2 c16.5-1.4,33-1.4,49.5,0l2.3,0.2l1.3,1.9c9.4,13.5,17.7,27.9,24.8,42.8l1,2.1l-1,2.1c-7,14.9-15.3,29.2-24.8,42.8l-1.3,1.9 l-2.3,0.2C144.4,175.6,136.1,176,128,176z M106.4,165.3c14.6,1.1,28.7,1.1,43.2,0c8.1-11.9,15.3-24.4,21.6-37.3 c-6.2-13-13.5-25.5-21.6-37.3c-14.4-1.1-28.8-1.1-43.2,0C98.2,102.5,91,115,84.8,128C91,140.9,98.3,153.4,106.4,165.3z"/></g>
</svg>