<!--?xml version="1.0" encoding="utf-8"?-->
<!-- Svg Vector Icons : http://www.onlinewebfonts.com/icon -->

<svg version="1.1" xmlns="http://www.w3.org/2000/svg" xmlns:xlink="http://www.w3.org/1999/xlink" x="0px" y="0px" viewBox="0 0 256 256" enable-background="new 0 0 256 256" xml:space="preserve">
<metadata> Svg Vector Icons : http://www.onlinewebfonts.com/icon </metadata>
<g><g><path fill="#023353" data-title="Layer 0" xs="0" d="M246,196.7c0,0.3,0,0.5-0.1,0.7c0,0.2-0.1,0.3-0.2,0.4c-0.1,0.1-0.2,0.1-0.4,0.1s-0.3,0-0.6-0.1c-0.2-0.1-0.5-0.2-0.7-0.3c-0.3-0.1-0.6-0.2-0.9-0.2s-0.7-0.1-1.1-0.1c-0.5,0-0.9,0.1-1.4,0.3c-0.5,0.2-0.9,0.5-1.4,0.9c-0.5,0.4-1,1-1.6,1.7c-0.6,0.7-1.2,1.6-1.8,2.6v16.6c0,0.1,0,0.3-0.1,0.4s-0.2,0.2-0.4,0.3c-0.2,0.1-0.4,0.1-0.7,0.2c-0.3,0-0.7,0-1.2,0s-0.8,0-1.1,0c-0.3,0-0.5-0.1-0.7-0.2c-0.2-0.1-0.3-0.2-0.4-0.3c-0.1-0.1-0.1-0.2-0.1-0.4V194c0-0.1,0-0.3,0.1-0.4c0.1-0.1,0.2-0.2,0.3-0.3c0.2-0.1,0.4-0.1,0.6-0.2c0.3,0,0.6,0,1,0c0.4,0,0.7,0,1,0c0.3,0,0.5,0.1,0.6,0.2c0.1,0.1,0.3,0.2,0.3,0.3c0.1,0.1,0.1,0.2,0.1,0.4v3.7c0.7-1,1.3-1.8,1.9-2.5c0.6-0.6,1.2-1.1,1.7-1.5c0.6-0.4,1.1-0.6,1.6-0.7c0.5-0.1,1.1-0.2,1.6-0.2c0.2,0,0.5,0,0.8,0c0.3,0,0.6,0.1,1,0.1s0.6,0.2,0.9,0.2c0.3,0.1,0.5,0.2,0.6,0.3s0.2,0.2,0.2,0.3c0,0.1,0.1,0.2,0.1,0.3c0,0.1,0,0.3,0,0.6s0,0.6,0,1C246,196.1,246,196.4,246,196.7z M224,207.6h-16.7c0,1.4,0.1,2.7,0.4,3.8c0.3,1.1,0.7,2.1,1.4,2.9c0.7,0.8,1.5,1.4,2.6,1.9c1.1,0.4,2.4,0.7,3.9,0.7c1.2,0,2.3-0.1,3.2-0.3c0.9-0.2,1.8-0.4,2.5-0.7c0.7-0.2,1.3-0.5,1.7-0.7c0.4-0.2,0.8-0.3,1-0.3c0.1,0,0.2,0,0.4,0.1c0.1,0.1,0.2,0.2,0.2,0.3c0,0.1,0.1,0.3,0.1,0.6c0,0.2,0,0.5,0,0.9c0,0.2,0,0.5,0,0.6c0,0.2,0,0.3-0.1,0.5c0,0.1-0.1,0.3-0.1,0.4c-0.1,0.1-0.1,0.2-0.3,0.3c-0.1,0.1-0.4,0.3-0.9,0.5c-0.5,0.2-1.2,0.5-2,0.7c-0.8,0.2-1.7,0.4-2.8,0.6c-1.1,0.2-2.2,0.3-3.4,0.3c-2.1,0-3.9-0.3-5.5-0.9c-1.6-0.6-2.9-1.4-3.9-2.6c-1.1-1.1-1.9-2.6-2.4-4.3c-0.6-1.7-0.8-3.7-0.8-6c0-2.2,0.3-4.1,0.8-5.9c0.6-1.7,1.4-3.2,2.4-4.4c1.1-1.2,2.3-2.1,3.9-2.8c1.5-0.7,3.2-1,5-1c2,0,3.7,0.3,5.1,1c1.4,0.6,2.6,1.5,3.4,2.6c0.9,1.1,1.6,2.3,2,3.8c0.4,1.4,0.6,3,0.6,4.6v0.8c0,0.7-0.2,1.3-0.6,1.6C224.9,207.4,224.5,207.6,224,207.6z M219.5,198.5c-1.2-1.4-2.8-2.1-5.1-2.1c-1.2,0-2.2,0.2-3,0.6c-0.9,0.4-1.6,1-2.2,1.7c-0.6,0.7-1,1.5-1.3,2.5c-0.3,0.9-0.5,1.9-0.5,3h13.8C221.2,201.8,220.7,199.9,219.5,198.5z M225.1,86.8c-24.1,3.6-52.1,12.6-52.1,12.6s11.2,29.3-12.6,69.1c-1.4,2.3-97.4-8.2-49.1-44.6c34.4-25.9,35.5-57,12.2-72.4c-13.9-9.2,22-19.7,26.4-21c0,0,6.2,23.1,12.3,24l0,0C211.4,61.5,228.2,86.3,225.1,86.8z M183,92.5c-3-4.6-11.8-8.9-11.8-8.9c-0.8,1.9-14.8,17.4-14.8,17.4C160,99.6,183,92.5,183,92.5z M129.9,131.5c14-4.3,20-8.2,20-8.2c-8.1-7.3-9.3-12.4-9.3-12.4C140.9,113,129.9,131.5,129.9,131.5z M157,104.4c0,0,0.5,12-1.5,16.8c0,0,13.6-6.3,15.7-8.4L157,104.4z M172.3,110.9c0,0,0.3-7-0.8-11.3l-12.3,4.1C159.2,103.8,168.8,109.5,172.3,110.9z M153.5,126.1l-8,16.8l0,0c4,0.2,24.2-9.7,24.2-9.7C165.3,132.3,153.5,126.1,153.5,126.1z M153.5,105.5l-10.9,4.4c3.4,8.1,9,11.2,9,11.2C155.1,113,153.5,105.5,153.5,105.5z M149,126.9c-2,1.4-20.8,7.6-20.8,7.6c5.6,7.3,13.3,10.4,13.3,10.4C146.8,137,149,126.9,149,126.9z M149.8,103.3c0.3-4.7-2.7-6.6-2.7-6.6c-1.1,1.9-20.4,17.7-20.4,17.7C129.7,112.3,149.8,103.3,149.8,103.3z M148.2,90.8c4.1-5.2,5.9-13.9,5.9-13.9l0,0c-1.1,0.9-11.5,9.5-11.5,9.5C144.3,87.4,148.2,90.8,148.2,90.8z M152.6,74.2c-3.4-2.2-11.1-4.1-11.1-4.1c0.9,0.5,1,13.6,1,13.6C146.4,80.2,152.6,74.2,152.6,74.2z M155.4,70.5C156,60,153.3,57,153.3,57l-10.7,9.2C145.6,66.9,155.4,70.5,155.4,70.5z M153.5,88.1l13.7-7.4l-10.1-5.4C157.3,77.6,153.5,88.1,153.5,88.1z M149.8,93.2c1.6,1.3,2.8,9.3,2.8,9.3c1.4-2.1,14.5-18.7,14.5-18.7C156.8,89.8,149.8,93.2,149.8,93.2z M172.3,115c0,0-13.4,7.9-16.9,8.9c0,0,7.7,5.9,14.9,7.6C170.4,131.5,173.3,123.6,172.3,115z M143.9,146.2c2.9,3.3,20.8,6.5,20.8,6.5c3-3.7,5-18.2,5-18.2C168.8,136.2,143.9,146.2,143.9,146.2z M159.2,168.1c1.6-1.9,5.5-12.8,5.5-12.8c-12.9,5.4-28.4,8.4-28.4,8.4C141.5,166.6,159.2,168.1,159.2,168.1z M164,153.5c-10.8-0.2-21.4-4.7-21.4-4.7c0.1,0.9-11.4,14.9-11.4,14.9C138.5,163.3,164,153.5,164,153.5z M129.9,162.4l9.1-13.6l-25.4,6.8C119.5,160.9,129.9,162.4,129.9,162.4z M112.1,155.2l25-9c-6.4-3.5-12.3-9-12.3-9l-13.4,17.1L112.1,155.2z M110.1,153.5c0,0,11.2-14.4,12-17.3c0,0-14.7,4.1-19.9,4.1l0,0C102.1,140.4,101.3,147.5,110.1,153.5z M119.7,120.2c-15.6,7.4-17.6,18.7-17.6,18.7c2.9,0,20.7-5.5,20.7-5.5C119.3,125.3,119.7,120.2,119.7,120.2z M126,130.4c4.6-4.6,9.2-17.6,9.2-17.6c-1.9,0.6-11.6,5.7-11.6,5.7C124,127.8,126,130.4,126,130.4z M131.1,106.1l-6.4,8.3l19.1-16.6C137,100.7,131.1,106.1,131.1,106.1z M136.3,99.6c3.8-2.4,8.5-6.5,8.5-6.5c-1.3-1.6-4-2.4-4-2.4C140.5,92.2,136.3,99.6,136.3,99.6z M140.1,64.8l11.5-8.5l-15.3-2.2l0,0C136.3,54,140.1,62.9,140.1,64.8z M137,62.4l-2.6-8.4l-7-2.4C130.4,53.7,137,62.4,137,62.4z M123.8,47.2c0.8,0.9,11.8,3.4,11.8,3.4l-7-8.2C128.6,42.5,123,46.3,123.8,47.2z M149.3,32.3c0,0-15.8,7-16.7,7.8l0,0c-1,0.8,18.3,3.3,19.8,3.3C153.8,43.4,149.3,32.3,149.3,32.3z M130.5,41.4c0.3,0.9,9.6,10.3,9.6,10.3h2.5l10-6.2C150.2,45.8,130.5,41.4,130.5,41.4z M154.3,47.2l-8.3,5.1l11.2,1.7L154.3,47.2z M173.9,60.8L155.5,57c0,0,4,5.7,1.7,13C157.1,70,172.8,61.3,173.9,60.8L173.9,60.8z M160.5,72.3c2.8,0.8,10.7,5.4,10.7,5.4c6.1-10.3,6.1-16.2,6.1-16.2L160.5,72.3z M179.3,61.5c0.2,2.4-4.3,16.2-4.3,16.2c8-4.1,25.2-8.9,25.2-8.9l0,0C196.5,66.2,179.3,61.5,179.3,61.5z M175,79.8c5.2,3,10.7,11.7,10.7,11.7c10-9.8,16.1-21.1,16.1-21.1C199.4,70.7,175,79.8,175,79.8z M204.5,70.5c-2.4,6.3-14.5,20.3-14.5,20.3c6.2-2.5,33-4.7,33-4.7C220.6,81.1,204.5,70.5,204.5,70.5z M98.5,163.4c1.9,0,3.4,1.5,3.4,3.4c0,1.9-1.5,3.4-3.4,3.4c-1.9,0-3.4-1.5-3.4-3.4C95,164.9,96.5,163.4,98.5,163.4L98.5,163.4z M95.9,166.8c0,1.5,1.1,2.7,2.6,2.7c1.4,0,2.6-1.2,2.6-2.7c0-1.5-1.1-2.7-2.6-2.7h0C97,164.1,95.9,165.3,95.9,166.8z M99.9,166.1c0,0.4-0.3,0.7-0.7,0.8v0c0.3,0.1,0.5,0.4,0.6,0.8c0.1,0.5,0.2,0.7,0.2,0.8h-0.8c-0.1-0.1-0.2-0.4-0.3-0.8c0-0.4-0.3-0.5-0.7-0.5h-0.4v1.3h-0.8v-3.4c0.3,0,0.7-0.1,1.3-0.1c0.6,0,0.9,0.1,1.1,0.3C99.8,165.5,99.9,165.7,99.9,166.1z M98.4,165.7c-0.2,0-0.3,0-0.4,0v1h0.4c0.4,0,0.8-0.1,0.8-0.5C99.1,165.9,98.9,165.7,98.4,165.7z M90.5,175.3c0.1,0.2,0.4,0.4,0.8,0.4c0.1,0,0.3,0,0.4,0c0.1,0,0.2,0,0.3-0.1c0.1,0,0.1,0,0.2-0.1c0,0,0.1,0,0.2,0c0,0,0.1,0,0.1,0c0,0,0.1,0.1,0.1,0.1c0,0.1,0,0.2,0,0.3c0,0.1,0,0.3,0,0.5c0,0.3,0,0.5,0,0.7c0,0.2-0.1,0.3-0.1,0.3c-0.1,0.1-0.1,0.1-0.3,0.2c-0.1,0-0.2,0.1-0.4,0.1c-0.1,0-0.3,0.1-0.5,0.1c-0.2,0-0.4,0-0.6,0c-0.5,0-0.9-0.1-1.3-0.2c-0.4-0.1-0.7-0.3-0.9-0.6c-0.2-0.3-0.4-0.6-0.5-1c-0.1-0.4-0.2-0.9-0.2-1.4V170h-3.4v7.2c0,0.1,0,0.1,0,0.2c0,0-0.1,0.1-0.2,0.1c-0.1,0-0.2,0-0.4,0.1c-0.2,0-0.4,0-0.6,0s-0.4,0-0.6,0s-0.3,0-0.4-0.1c-0.1,0-0.2-0.1-0.2-0.1c0,0,0-0.1,0-0.2V170h-1.1c-0.1,0-0.2-0.1-0.3-0.2c-0.1-0.2-0.1-0.4-0.1-0.8c0-0.2,0-0.4,0-0.5c0-0.1,0-0.2,0.1-0.3c0-0.1,0.1-0.1,0.1-0.2c0,0,0.1,0,0.2,0H82v-0.7c0-0.6,0-1.1,0.2-1.6c0.1-0.5,0.3-0.8,0.6-1.1c0.3-0.3,0.6-0.5,1-0.7c0.4-0.1,0.9-0.2,1.4-0.2c0.3,0,0.5,0,0.8,0.1c0.3,0,0.4,0.1,0.6,0.1c0.1,0,0.2,0.1,0.2,0.1c0,0,0.1,0.1,0.1,0.2c0,0.1,0,0.2,0,0.3c0,0.1,0,0.3,0,0.5c0,0.2,0,0.4,0,0.5c0,0.1,0,0.2,0,0.3c0,0.1,0,0.1-0.1,0.1c0,0-0.1,0-0.1,0c0,0-0.1,0-0.1,0c0,0-0.1,0-0.2-0.1c-0.1,0-0.2,0-0.3-0.1c-0.1,0-0.2,0-0.4,0c-0.2,0-0.3,0-0.5,0.1c-0.1,0-0.2,0.1-0.3,0.3c-0.1,0.1-0.1,0.3-0.2,0.5c0,0.2-0.1,0.4-0.1,0.7v0.8h3.4v-2c0-0.1,0-0.1,0-0.2c0,0,0.1-0.1,0.2-0.1c0.1,0,0.2-0.1,0.4-0.1c0.2,0,0.4,0,0.6,0c0.2,0,0.5,0,0.6,0c0.2,0,0.3,0,0.4,0.1c0.1,0,0.2,0.1,0.2,0.1c0,0,0.1,0.1,0.1,0.2v2h2c0.1,0,0.1,0,0.2,0s0.1,0.1,0.1,0.2c0,0.1,0,0.2,0.1,0.3c0,0.1,0,0.3,0,0.5c0,0.4,0,0.6-0.1,0.8c-0.1,0.1-0.2,0.2-0.3,0.2h-2v4.2C90.3,174.7,90.4,175,90.5,175.3z M81.8,183.6c0.3,0,0.6,0.1,0.7,0.2c0.2,0.1,0.3,0.1,0.4,0.3c0.1,0.1,0.1,0.2,0.1,0.4v31.4h13.1c0.2,0,0.3,0,0.4,0.1c0.1,0.1,0.2,0.2,0.3,0.4c0.1,0.2,0.1,0.4,0.2,0.6c0,0.3,0,0.6,0,1s0,0.7,0,0.9c0,0.2-0.1,0.5-0.2,0.7c-0.1,0.2-0.2,0.3-0.3,0.4c-0.1,0.1-0.3,0.1-0.4,0.1H80c-0.4,0-0.8-0.1-1.2-0.4s-0.6-0.8-0.6-1.5v-33.6c0-0.1,0-0.3,0.1-0.4c0.1-0.1,0.2-0.2,0.4-0.3c0.2-0.1,0.4-0.1,0.8-0.2c0.3,0,0.7-0.1,1.2-0.1C81.1,183.5,81.5,183.5,81.8,183.6z M78.1,176.4c-0.4,0.5-0.9,0.8-1.5,1.1c-0.6,0.2-1.3,0.4-2.2,0.4c-0.8,0-1.5-0.1-2.1-0.3c-0.6-0.2-1.1-0.6-1.5-1c-0.4-0.4-0.7-0.9-0.9-1.5c-0.2-0.6-0.3-1.3-0.3-2.1s0.1-1.5,0.3-2.1c0.2-0.6,0.5-1.2,0.9-1.6c0.4-0.5,0.9-0.8,1.5-1c0.6-0.2,1.3-0.4,2.2-0.4c0.8,0,1.5,0.1,2.1,0.3s1.1,0.5,1.5,1c0.4,0.4,0.7,0.9,0.9,1.6c0.2,0.6,0.3,1.3,0.3,2.1c0,0.8-0.1,1.5-0.3,2.1C78.9,175.4,78.6,175.9,78.1,176.4z M76.7,171.5c-0.1-0.4-0.2-0.7-0.4-1s-0.4-0.5-0.7-0.7c-0.3-0.1-0.6-0.2-1.1-0.2c-0.4,0-0.7,0.1-1,0.2s-0.5,0.3-0.7,0.6c-0.2,0.3-0.3,0.6-0.4,1c-0.1,0.4-0.1,0.8-0.1,1.3c0,0.4,0,0.8,0.1,1.2s0.2,0.7,0.4,1c0.2,0.3,0.4,0.5,0.7,0.6s0.6,0.2,1,0.2c0.4,0,0.7-0.1,1-0.2c0.3-0.1,0.5-0.3,0.7-0.6c0.2-0.3,0.3-0.6,0.4-0.9s0.1-0.8,0.1-1.3C76.8,172.3,76.7,171.9,76.7,171.5z M69.6,205.7c-0.2,1.4-0.5,2.7-0.8,3.9c-0.4,1.2-0.9,2.4-1.4,3.4c-0.6,1-1.3,2-2,2.8c1.4,1.1,2.6,2,3.6,2.6c1,0.6,1.9,1.1,2.6,1.4c0.7,0.3,1.2,0.6,1.6,0.7c0.4,0.1,0.6,0.3,0.8,0.5c0.2,0.2,0.3,0.4,0.4,0.7c0.1,0.3,0.1,0.8,0.1,1.3c0,0.4,0,0.8-0.1,1.1c0,0.3-0.1,0.5-0.2,0.7c-0.1,0.2-0.2,0.3-0.3,0.3c-0.1,0-0.2,0.1-0.3,0.1c-0.4,0-1-0.1-1.8-0.5c-0.8-0.3-1.8-0.7-2.9-1.3s-2.3-1.3-3.5-2.1c-1.3-0.8-2.4-1.8-3.6-2.9c-0.9,0.6-2.1,1.1-3.5,1.5c-1.4,0.4-3,0.6-4.9,0.6c-2.7,0-5.1-0.4-7.1-1.2s-3.7-2-5-3.5c-1.3-1.5-2.3-3.5-2.9-5.8c-0.7-2.3-1-5-1-7.9c0-2.9,0.3-5.5,1-7.8c0.7-2.3,1.7-4.3,3.1-5.9c1.4-1.6,3.1-2.9,5.2-3.8c2.1-0.9,4.5-1.3,7.3-1.3c2.6,0,4.9,0.4,6.9,1.2c2,0.8,3.6,2,5,3.5c1.3,1.5,2.4,3.4,3,5.7s1,4.9,1,7.8C69.9,202.9,69.8,204.3,69.6,205.7z M64.3,196c-0.4-1.8-1-3.3-1.8-4.6c-0.9-1.3-2-2.3-3.4-3.1c-1.4-0.7-3.2-1.1-5.3-1.1c-2.1,0-3.9,0.4-5.3,1.2c-1.4,0.8-2.6,1.8-3.5,3.2c-0.9,1.3-1.5,2.8-1.9,4.6c-0.4,1.7-0.6,3.6-0.6,5.5c0,2.1,0.2,4.1,0.5,5.9c0.4,1.8,1,3.3,1.8,4.6s2,2.3,3.4,3c1.4,0.7,3.2,1.1,5.3,1.1c2.1,0,3.9-0.4,5.3-1.2c1.4-0.8,2.6-1.9,3.5-3.2c0.9-1.3,1.5-2.9,1.9-4.6c0.4-1.8,0.6-3.6,0.6-5.6C64.8,199.7,64.6,197.8,64.3,196z M67.3,177c-0.3,0.3-0.8,0.5-1.2,0.6c-0.5,0.1-1,0.2-1.5,0.2c-0.3,0-0.7,0-1-0.1s-0.6-0.1-0.8-0.2c-0.2-0.1-0.5-0.1-0.6-0.2c-0.2-0.1-0.3-0.2-0.4-0.2c-0.1-0.1-0.1-0.2-0.2-0.3c0-0.1-0.1-0.4-0.1-0.7c0-0.2,0-0.3,0-0.5c0-0.1,0-0.2,0-0.3c0-0.1,0.1-0.1,0.1-0.1c0,0,0.1,0,0.1,0c0.1,0,0.2,0,0.3,0.1c0.1,0.1,0.3,0.2,0.5,0.3c0.2,0.1,0.5,0.2,0.7,0.3s0.6,0.1,1,0.1c0.2,0,0.4,0,0.6-0.1c0.2,0,0.3-0.1,0.5-0.2c0.1-0.1,0.2-0.2,0.3-0.3c0.1-0.1,0.1-0.3,0.1-0.5c0-0.2-0.1-0.4-0.2-0.5c-0.1-0.1-0.3-0.3-0.5-0.4c-0.2-0.1-0.4-0.2-0.7-0.3c-0.3-0.1-0.5-0.2-0.8-0.3c-0.3-0.1-0.5-0.2-0.8-0.4c-0.3-0.1-0.5-0.3-0.7-0.5c-0.2-0.2-0.4-0.5-0.5-0.8s-0.2-0.7-0.2-1.1c0-0.4,0.1-0.8,0.2-1.2c0.2-0.4,0.4-0.7,0.7-0.9c0.3-0.3,0.7-0.5,1.2-0.6c0.5-0.1,1-0.2,1.5-0.2c0.3,0,0.6,0,0.8,0c0.3,0,0.5,0.1,0.7,0.1c0.2,0.1,0.4,0.1,0.6,0.2c0.1,0.1,0.3,0.1,0.3,0.2c0.1,0,0.1,0.1,0.1,0.1c0,0,0,0.1,0,0.2c0,0.1,0,0.2,0,0.3s0,0.2,0,0.4c0,0.2,0,0.3,0,0.4c0,0.1,0,0.2,0,0.3c0,0.1,0,0.1-0.1,0.1c0,0-0.1,0-0.1,0c-0.1,0-0.1,0-0.3-0.1c-0.1-0.1-0.3-0.1-0.5-0.2s-0.4-0.1-0.7-0.2c-0.2-0.1-0.5-0.1-0.9-0.1c-0.2,0-0.4,0-0.6,0.1c-0.2,0-0.3,0.1-0.4,0.2c-0.1,0.1-0.2,0.2-0.2,0.3c0,0.1-0.1,0.2-0.1,0.4c0,0.2,0.1,0.4,0.2,0.5c0.1,0.1,0.3,0.3,0.5,0.4c0.2,0.1,0.4,0.2,0.7,0.3c0.3,0.1,0.5,0.2,0.8,0.3c0.3,0.1,0.5,0.2,0.8,0.4c0.3,0.1,0.5,0.3,0.7,0.5c0.2,0.2,0.4,0.5,0.5,0.8c0.1,0.3,0.2,0.7,0.2,1.1c0,0.5-0.1,1-0.3,1.3C67.9,176.4,67.6,176.7,67.3,177z M58.9,176.4c-0.4,0.5-0.9,0.8-1.5,1.1c-0.6,0.2-1.3,0.4-2.2,0.4c-0.8,0-1.5-0.1-2.1-0.3c-0.6-0.2-1.1-0.6-1.5-1c-0.4-0.4-0.7-0.9-0.9-1.5c-0.2-0.6-0.3-1.3-0.3-2.1s0.1-1.5,0.3-2.1c0.2-0.6,0.5-1.2,0.9-1.6c0.4-0.5,0.9-0.8,1.5-1c0.6-0.2,1.3-0.4,2.2-0.4c0.8,0,1.5,0.1,2.1,0.3s1.1,0.5,1.5,1s0.7,0.9,0.9,1.6c0.2,0.6,0.3,1.3,0.3,2.1c0,0.8-0.1,1.5-0.3,2.1C59.6,175.4,59.3,175.9,58.9,176.4z M57.4,171.5c-0.1-0.4-0.2-0.7-0.4-1c-0.2-0.3-0.4-0.5-0.7-0.7c-0.3-0.1-0.6-0.2-1.1-0.2c-0.4,0-0.7,0.1-1,0.2s-0.5,0.3-0.7,0.6c-0.2,0.3-0.3,0.6-0.4,1c-0.1,0.4-0.1,0.8-0.1,1.3c0,0.4,0,0.8,0.1,1.2c0.1,0.4,0.2,0.7,0.4,1c0.2,0.3,0.4,0.5,0.7,0.6c0.3,0.1,0.6,0.2,1,0.2c0.4,0,0.7-0.1,1-0.2c0.3-0.1,0.5-0.3,0.7-0.6c0.2-0.3,0.3-0.6,0.4-0.9c0.1-0.4,0.1-0.8,0.1-1.3C57.5,172.3,57.4,171.9,57.4,171.5z M49.4,170.1c0,0.1-0.1,0.1-0.1,0.2c0,0-0.1,0-0.2,0c0,0-0.1,0-0.2,0c-0.1,0-0.1,0-0.2-0.1c-0.1,0-0.2,0-0.3-0.1c-0.1,0-0.2,0-0.3,0c-0.1,0-0.3,0-0.4,0.1c-0.1,0-0.3,0.1-0.4,0.3c-0.1,0.1-0.3,0.3-0.5,0.5c-0.2,0.2-0.3,0.5-0.5,0.7v5.6c0,0.1,0,0.1-0.1,0.2c0,0-0.1,0.1-0.2,0.1c-0.1,0-0.2,0-0.4,0.1s-0.4,0-0.6,0c-0.2,0-0.5,0-0.6,0c-0.2,0-0.3,0-0.4-0.1c-0.1,0-0.2-0.1-0.2-0.1c0,0-0.1-0.1-0.1-0.2v-8.9c0-0.1,0-0.1,0-0.2c0,0,0.1-0.1,0.2-0.1c0.1,0,0.2,0,0.3-0.1s0.3,0,0.5,0s0.4,0,0.5,0s0.2,0,0.3,0.1c0.1,0,0.1,0.1,0.2,0.1c0,0,0,0.1,0,0.2v1.1c0.2-0.3,0.5-0.6,0.7-0.8c0.2-0.2,0.4-0.4,0.6-0.5c0.2-0.1,0.4-0.2,0.6-0.3c0.2,0,0.4-0.1,0.6-0.1c0.1,0,0.2,0,0.3,0c0.1,0,0.2,0,0.3,0c0.1,0,0.2,0,0.3,0.1c0.1,0,0.1,0.1,0.2,0.1c0,0,0.1,0.1,0.1,0.1c0,0,0,0.1,0,0.2c0,0.1,0,0.2,0,0.3s0,0.3,0,0.6c0,0.2,0,0.4,0,0.6C49.4,169.9,49.4,170,49.4,170.1z M41.8,176.5c0,0.1,0,0.1-0.1,0.2c0,0-0.1,0.1-0.1,0.2c-0.1,0.1-0.2,0.2-0.4,0.3c-0.2,0.1-0.4,0.2-0.7,0.3c-0.2,0.1-0.5,0.2-0.8,0.2c-0.3,0-0.6,0.1-0.9,0.1c-0.7,0-1.3-0.1-1.8-0.3c-0.5-0.2-1-0.5-1.3-0.9c-0.4-0.4-0.6-0.9-0.8-1.5c-0.2-0.6-0.3-1.3-0.3-2.1c0-0.9,0.1-1.7,0.3-2.3s0.5-1.2,0.9-1.6c0.4-0.4,0.9-0.7,1.4-1c0.6-0.2,1.2-0.3,1.8-0.3c0.3,0,0.5,0,0.8,0.1c0.3,0,0.5,0.1,0.7,0.2s0.4,0.2,0.6,0.3c0.2,0.1,0.3,0.2,0.4,0.3c0.1,0.1,0.1,0.1,0.1,0.2c0,0,0,0.1,0.1,0.2c0,0.1,0,0.2,0,0.3c0,0.1,0,0.3,0,0.4c0,0.4,0,0.7-0.1,0.8c-0.1,0.2-0.1,0.2-0.3,0.2c-0.1,0-0.2,0-0.4-0.1c-0.1-0.1-0.3-0.2-0.5-0.3c-0.2-0.1-0.4-0.2-0.6-0.3c-0.2-0.1-0.5-0.1-0.9-0.1c-0.6,0-1.2,0.2-1.5,0.7c-0.3,0.5-0.5,1.3-0.5,2.2c0,0.5,0,0.9,0.1,1.3c0.1,0.4,0.2,0.7,0.4,0.9c0.2,0.2,0.4,0.4,0.7,0.6c0.3,0.1,0.6,0.2,0.9,0.2s0.6,0,0.9-0.1c0.2-0.1,0.5-0.2,0.6-0.3c0.2-0.1,0.3-0.2,0.5-0.3c0.1-0.1,0.2-0.1,0.3-0.1c0,0,0.1,0,0.1,0c0,0,0.1,0.1,0.1,0.2c0,0.1,0,0.2,0,0.3c0,0.1,0,0.3,0,0.5c0,0.2,0,0.3,0,0.4C41.8,176.4,41.8,176.4,41.8,176.5z M31.3,166.6c-0.6,0-1-0.1-1.2-0.3s-0.3-0.5-0.3-1c0-0.5,0.1-0.9,0.3-1.1c0.2-0.2,0.6-0.3,1.2-0.3c0.6,0,0.9,0.1,1.2,0.3c0.2,0.2,0.3,0.5,0.3,1c0,0.5-0.1,0.9-0.3,1.1C32.2,166.5,31.8,166.6,31.3,166.6z M30.3,186.2c0,0.2,0.1,0.4,0.1,0.6c0,0.2,0,0.5,0,0.9c0,0.3,0,0.6,0,0.9c0,0.3-0.1,0.5-0.1,0.7c0,0.2-0.1,0.3-0.2,0.4c-0.1,0.1-0.2,0.1-0.4,0.1c-0.2,0-0.5-0.1-1-0.4c-0.4-0.3-1-0.6-1.6-0.9c-0.7-0.3-1.4-0.6-2.3-0.9c-0.9-0.3-1.9-0.4-2.9-0.4c-1,0-1.9,0.1-2.6,0.4c-0.7,0.3-1.4,0.6-1.9,1.1c-0.5,0.5-0.8,1-1.1,1.6c-0.2,0.6-0.4,1.3-0.4,2c0,1,0.2,1.9,0.7,2.6s1.1,1.4,1.9,1.9c0.8,0.6,1.7,1.1,2.7,1.5c1,0.5,2,0.9,3,1.4c1,0.5,2,1,3,1.6c1,0.6,1.9,1.3,2.7,2c0.8,0.8,1.4,1.7,1.9,2.7c0.5,1.1,0.7,2.3,0.7,3.8c0,1.7-0.3,3.2-0.9,4.6c-0.6,1.3-1.5,2.5-2.6,3.4c-1.1,0.9-2.4,1.6-3.9,2.1c-1.5,0.5-3.1,0.7-4.9,0.7c-1.2,0-2.4-0.1-3.4-0.3c-1-0.2-2-0.5-2.8-0.7c-0.8-0.3-1.5-0.6-2.1-0.9c-0.6-0.3-0.9-0.6-1.2-0.8c-0.2-0.2-0.4-0.5-0.5-0.9c-0.1-0.3-0.1-0.8-0.1-1.4c0-0.4,0-0.7,0-1c0-0.3,0.1-0.5,0.2-0.7c0.1-0.2,0.2-0.3,0.3-0.4s0.2-0.1,0.4-0.1c0.3,0,0.6,0.2,1.1,0.5c0.5,0.3,1.1,0.7,1.9,1c0.7,0.4,1.7,0.7,2.7,1.1c1.1,0.3,2.3,0.5,3.7,0.5c1.1,0,2-0.1,2.9-0.4c0.9-0.3,1.6-0.7,2.3-1.2c0.6-0.5,1.1-1.2,1.4-1.9c0.3-0.7,0.5-1.6,0.5-2.6c0-1-0.2-1.9-0.7-2.6c-0.5-0.7-1.1-1.4-1.9-1.9c-0.8-0.6-1.6-1.1-2.6-1.5c-1-0.5-2-0.9-3-1.4c-1-0.5-2-1-3-1.6c-1-0.6-1.9-1.3-2.6-2c-0.8-0.8-1.4-1.7-1.9-2.8c-0.5-1.1-0.7-2.3-0.7-3.8c0-1.5,0.3-2.9,0.8-4c0.6-1.2,1.3-2.2,2.3-3c1-0.8,2.2-1.4,3.5-1.8c1.3-0.4,2.8-0.6,4.4-0.6c0.8,0,1.6,0.1,2.4,0.2c0.8,0.1,1.6,0.3,2.3,0.6c0.7,0.2,1.4,0.5,1.9,0.8c0.6,0.3,0.9,0.5,1.1,0.7c0.2,0.2,0.3,0.3,0.4,0.4C30.2,185.9,30.3,186.1,30.3,186.2z M27,177.5c-0.1,0-0.2,0.1-0.4,0.1c-0.2,0-0.4,0-0.6,0s-0.4,0-0.6,0c-0.2,0-0.3,0-0.4-0.1c-0.1,0-0.2-0.1-0.2-0.1c0,0,0-0.1,0-0.2v-10.5h0L21,177.2c0,0.1-0.1,0.2-0.1,0.2c-0.1,0-0.1,0.1-0.2,0.1c-0.1,0-0.2,0-0.4,0.1c-0.2,0-0.4,0-0.6,0c-0.2,0-0.4,0-0.6,0c-0.2,0-0.3,0-0.4-0.1c-0.1,0-0.2-0.1-0.2-0.1c0,0-0.1-0.1-0.1-0.2l-3.6-10.5h0v10.5c0,0.1,0,0.1,0,0.2c0,0-0.1,0.1-0.2,0.1c-0.1,0-0.2,0.1-0.4,0.1c-0.1,0-0.4,0-0.6,0c-0.2,0-0.4,0-0.6,0c-0.2,0-0.3,0-0.4-0.1c-0.1,0-0.2-0.1-0.2-0.1c0,0,0-0.1,0-0.2v-11.6c0-0.3,0.1-0.6,0.3-0.8c0.2-0.2,0.4-0.3,0.7-0.3h1.7c0.3,0,0.6,0,0.8,0.1c0.2,0,0.4,0.1,0.6,0.2c0.2,0.1,0.3,0.3,0.4,0.5c0.1,0.2,0.2,0.4,0.3,0.7l2.8,7.7h0l2.9-7.7c0.1-0.3,0.2-0.5,0.3-0.7c0.1-0.2,0.2-0.4,0.4-0.5c0.1-0.1,0.3-0.2,0.5-0.3c0.2,0,0.4-0.1,0.7-0.1h1.8c0.2,0,0.3,0,0.5,0.1c0.1,0,0.2,0.1,0.3,0.2c0.1,0.1,0.1,0.2,0.2,0.3c0,0.1,0.1,0.3,0.1,0.4v11.6c0,0.1,0,0.1,0,0.2C27.2,177.4,27.1,177.5,27,177.5z M31.9,177.6c-0.2,0-0.4,0-0.6,0c-0.2,0-0.5,0-0.6,0c-0.2,0-0.3,0-0.4-0.1c-0.1,0-0.2-0.1-0.2-0.1c0,0-0.1-0.1-0.1-0.2v-8.9c0-0.1,0-0.1,0.1-0.2c0,0,0.1-0.1,0.2-0.1c0.1,0,0.2-0.1,0.4-0.1c0.2,0,0.4,0,0.6,0c0.2,0,0.5,0,0.6,0c0.2,0,0.3,0,0.4,0.1c0.1,0,0.2,0.1,0.2,0.1c0,0,0.1,0.1,0.1,0.2v8.9c0,0.1,0,0.1-0.1,0.2c0,0-0.1,0.1-0.2,0.1C32.2,177.6,32,177.6,31.9,177.6z M107.7,213.8c0.1-0.2,0.2-0.3,0.3-0.4c0.1-0.1,0.2-0.1,0.4-0.1c0.3,0,0.6,0.2,1.1,0.5c0.5,0.3,1.1,0.7,1.9,1c0.7,0.4,1.7,0.7,2.7,1.1s2.3,0.5,3.7,0.5c1.1,0,2-0.1,2.9-0.4s1.6-0.7,2.3-1.2c0.6-0.5,1.1-1.2,1.4-1.9c0.3-0.7,0.5-1.6,0.5-2.6c0-1-0.2-1.9-0.7-2.6c-0.5-0.7-1.1-1.4-1.9-1.9c-0.8-0.6-1.6-1.1-2.6-1.5c-1-0.5-2-0.9-3-1.4c-1-0.5-2-1-3-1.6c-1-0.6-1.9-1.3-2.6-2c-0.8-0.8-1.4-1.7-1.9-2.8c-0.5-1.1-0.7-2.3-0.7-3.8c0-1.5,0.3-2.9,0.8-4c0.6-1.2,1.3-2.2,2.3-3c1-0.8,2.2-1.4,3.5-1.8c1.3-0.4,2.8-0.6,4.4-0.6c0.8,0,1.6,0.1,2.4,0.2c0.8,0.1,1.6,0.3,2.3,0.6c0.7,0.2,1.4,0.5,1.9,0.8c0.6,0.3,0.9,0.5,1.1,0.7c0.2,0.2,0.3,0.3,0.4,0.4c0,0.1,0.1,0.2,0.1,0.4c0,0.2,0.1,0.4,0.1,0.6c0,0.2,0,0.5,0,0.9c0,0.3,0,0.6,0,0.9c0,0.3-0.1,0.5-0.1,0.7c0,0.2-0.1,0.3-0.2,0.4c-0.1,0.1-0.2,0.1-0.4,0.1c-0.2,0-0.5-0.1-1-0.4c-0.4-0.3-1-0.6-1.6-0.9c-0.6-0.3-1.4-0.6-2.3-0.9c-0.9-0.3-1.9-0.4-2.9-0.4c-1,0-1.9,0.1-2.6,0.4c-0.7,0.3-1.4,0.6-1.9,1.1c-0.5,0.5-0.9,1-1.1,1.6c-0.2,0.6-0.4,1.3-0.4,2c0,1,0.2,1.9,0.7,2.6c0.5,0.7,1.1,1.4,1.9,1.9c0.8,0.6,1.7,1.1,2.7,1.5c1,0.5,2,0.9,3,1.4c1,0.5,2,1,3,1.6c1,0.6,1.9,1.3,2.6,2c0.8,0.8,1.4,1.7,1.9,2.7c0.5,1.1,0.7,2.3,0.7,3.8c0,1.7-0.3,3.2-0.9,4.6c-0.6,1.3-1.5,2.5-2.6,3.4c-1.1,0.9-2.4,1.6-3.9,2.1c-1.5,0.5-3.1,0.7-4.9,0.7c-1.2,0-2.4-0.1-3.4-0.3c-1-0.2-2-0.5-2.8-0.7c-0.8-0.3-1.5-0.6-2-0.9c-0.6-0.3-0.9-0.6-1.2-0.8c-0.2-0.2-0.4-0.5-0.5-0.9c-0.1-0.3-0.1-0.8-0.1-1.4c0-0.4,0-0.7,0-1C107.5,214.2,107.6,213.9,107.7,213.8z M136.1,196.5c1.1-1.2,2.3-2.1,3.9-2.8c1.5-0.7,3.2-1,5-1c2,0,3.7,0.3,5.1,1c1.4,0.6,2.6,1.5,3.4,2.6c0.9,1.1,1.6,2.3,2,3.8c0.4,1.4,0.6,3,0.6,4.6v0.8c0,0.7-0.2,1.3-0.6,1.6c-0.4,0.3-0.8,0.5-1.3,0.5h-16.7c0,1.4,0.1,2.7,0.4,3.8c0.3,1.1,0.7,2.1,1.4,2.9c0.7,0.8,1.5,1.4,2.6,1.9c1.1,0.4,2.4,0.7,3.9,0.7c1.2,0,2.3-0.1,3.2-0.3c0.9-0.2,1.8-0.4,2.5-0.7c0.7-0.2,1.3-0.5,1.7-0.6c0.4-0.2,0.8-0.3,1-0.3c0.1,0,0.2,0,0.4,0.1c0.1,0.1,0.2,0.2,0.2,0.3s0.1,0.3,0.1,0.6c0,0.2,0,0.5,0,0.9c0,0.2,0,0.5,0,0.6c0,0.2,0,0.3-0.1,0.5c0,0.1-0.1,0.3-0.1,0.4c-0.1,0.1-0.1,0.2-0.3,0.3c-0.1,0.1-0.4,0.3-0.9,0.5c-0.5,0.2-1.2,0.5-2,0.7c-0.8,0.2-1.7,0.4-2.8,0.6c-1.1,0.2-2.2,0.3-3.4,0.3c-2.1,0-3.9-0.3-5.5-0.9c-1.6-0.6-2.9-1.4-3.9-2.6c-1.1-1.1-1.9-2.6-2.4-4.3c-0.6-1.7-0.8-3.7-0.8-6c0-2.2,0.3-4.1,0.8-5.8C134.3,199.2,135.1,197.7,136.1,196.5z M151.5,204.2c0-2.4-0.5-4.3-1.6-5.7c-1.2-1.4-2.8-2.1-5.1-2.1c-1.2,0-2.2,0.2-3,0.6c-0.9,0.4-1.6,1-2.2,1.7c-0.6,0.7-1,1.5-1.3,2.5c-0.3,0.9-0.5,1.9-0.5,3H151.5z M161.9,193.4c0.2-0.1,0.4-0.1,0.7-0.2c0.3,0,0.6,0,1,0c0.4,0,0.7,0,1,0c0.3,0,0.5,0.1,0.6,0.2c0.1,0.1,0.3,0.2,0.3,0.3c0.1,0.1,0.1,0.2,0.1,0.4v3.7c0.7-1,1.3-1.8,1.9-2.5c0.6-0.6,1.2-1.1,1.7-1.5c0.6-0.4,1.1-0.6,1.6-0.7c0.5-0.1,1.1-0.2,1.6-0.2c0.2,0,0.5,0,0.8,0c0.3,0,0.6,0.1,1,0.1c0.3,0.1,0.7,0.2,0.9,0.2c0.3,0.1,0.5,0.2,0.6,0.3s0.2,0.2,0.2,0.3c0,0.1,0.1,0.2,0.1,0.3c0,0.1,0,0.3,0,0.6s0,0.6,0,1c0,0.4,0,0.7,0,1s0,0.5-0.1,0.7c0,0.2-0.1,0.3-0.2,0.4c-0.1,0.1-0.2,0.1-0.4,0.1c-0.1,0-0.3,0-0.6-0.1c-0.2-0.1-0.5-0.2-0.7-0.3c-0.3-0.1-0.6-0.2-0.9-0.2c-0.3-0.1-0.7-0.1-1.1-0.1c-0.5,0-0.9,0.1-1.4,0.3c-0.5,0.2-0.9,0.5-1.4,0.9c-0.5,0.4-1,1-1.6,1.7c-0.6,0.7-1.2,1.6-1.8,2.6v16.6c0,0.1,0,0.3-0.1,0.4s-0.2,0.2-0.4,0.3c-0.2,0.1-0.4,0.1-0.7,0.2c-0.3,0-0.7,0-1.2,0c-0.5,0-0.8,0-1.1,0c-0.3,0-0.5-0.1-0.7-0.2c-0.2-0.1-0.3-0.2-0.4-0.3c-0.1-0.1-0.1-0.2-0.1-0.4V194c0-0.1,0-0.3,0.1-0.4C161.6,193.5,161.8,193.5,161.9,193.4z M177,193.3c0.2-0.1,0.4-0.1,0.7-0.1c0.3,0,0.7,0,1.1,0c0.6,0,1,0,1.3,0c0.3,0,0.6,0.1,0.7,0.1s0.3,0.2,0.4,0.3c0.1,0.1,0.2,0.3,0.2,0.4l7.2,20.8l0.1,0.3l0.1-0.3l7.1-20.8c0-0.2,0.1-0.3,0.2-0.4c0.1-0.1,0.2-0.2,0.4-0.3s0.4-0.1,0.7-0.1c0.3,0,0.7,0,1.2,0c0.4,0,0.8,0,1.1,0c0.3,0,0.5,0.1,0.7,0.1c0.2,0.1,0.3,0.2,0.3,0.3c0.1,0.1,0.1,0.2,0.1,0.4c0,0.1,0,0.1,0,0.2c0,0.1,0,0.2,0,0.3c0,0.1,0,0.2-0.1,0.3c0,0.1-0.1,0.2-0.1,0.4l-8.6,24c-0.1,0.2-0.2,0.4-0.3,0.5c-0.1,0.1-0.3,0.2-0.6,0.3c-0.2,0.1-0.6,0.1-0.9,0.1c-0.4,0-0.8,0-1.4,0c-0.6,0-1,0-1.4,0c-0.4,0-0.7-0.1-0.9-0.2c-0.2-0.1-0.4-0.2-0.6-0.3c-0.1-0.1-0.2-0.3-0.3-0.5l-8.6-24c-0.1-0.2-0.1-0.4-0.2-0.6c0-0.2-0.1-0.3-0.1-0.4c0-0.1,0-0.2,0-0.2c0-0.1,0-0.3,0.1-0.4C176.7,193.5,176.8,193.4,177,193.3z"/></g></g>
</svg>