<!--?xml version="1.0" encoding="utf-8"?-->
<!-- Svg Vector Icons : http://www.onlinewebfonts.com/icon -->

<svg version="1.1" xmlns="http://www.w3.org/2000/svg" xmlns:xlink="http://www.w3.org/1999/xlink" x="0px" y="0px" viewBox="0 0 256 256" enable-background="new 0 0 256 256" xml:space="preserve">
<metadata> Svg Vector Icons : http://www.onlinewebfonts.com/icon </metadata>
<g> <path fill="#023353" data-title="Layer 0" xs="0" d="M246,128c0,65.2-52.8,118-118,118c-65.2,0-118-52.8-118-118C10,62.8,62.8,10,128,10 C193.2,10,246,62.8,246,128z M179.6,53.6c-12,0.4-22.4,7-30.2,16.2c-8.6,10-14.4,21.9-18.5,34c-7.4-6-13.1-13.9-25-17.3 c-9.5-2.9-19.8-1-27.7,5.1c-4,3.1-7,7.4-8.5,12.3c-3.5,11.6,3.7,21.9,7.1,25.6l7.2,7.8c1.5,1.5,5.1,5.5,3.3,11.2 c-1.9,6.2-9.4,10.2-17,7.9c-3.4-1-8.3-3.6-7.2-7.2c0.4-1.5,1.5-2.6,2.1-3.8c0.5-1.1,0.8-1.9,0.9-2.4c1.4-4.6-0.5-10.5-5.4-12 c-4.6-1.4-9.2-0.3-11.1,5.6c-2.1,6.7,1.2,18.8,18.3,24.1c20.1,6.2,37-4.8,39.4-19c1.5-8.9-2.5-15.6-9.9-24.1l-6-6.7 c-3.6-3.6-4.9-9.9-1.1-14.6c3.2-4,7.7-5.7,15.1-3.7c10.8,2.9,15.7,10.5,23.7,16.5c-3.3,10.9-5.5,21.9-7.5,31.7l-1.2,7.3 c-5.8,30.2-10.2,46.8-21.6,56.3c-2.3,1.6-5.6,4.1-10.6,4.3c-2.6,0-3.5-1.7-3.5-2.5c-0.1-1.8,1.5-2.7,2.5-3.5 c1.5-0.8,3.8-2.2,3.7-6.6c-0.2-5.2-4.5-9.8-10.8-9.6c-4.7,0.2-11.8,4.6-11.6,12.6c0.3,8.4,8.1,14.6,19.8,14.2 c6.3-0.2,20.3-2.8,34.1-19.2c16.1-18.8,20.6-40.3,23.9-56.1l3.8-20.8c2.1,0.2,4.3,0.4,6.8,0.5c20,0.4,30-9.9,30.1-17.5 c0.1-4.6-3-9.1-7.3-8.9c-3.8,0.1-7.1,2.7-7.9,6.4c-0.9,4.2,6.4,8,0.7,11.7c-4,2.6-11.3,4.4-21.5,2.9L153,102 c3.8-19.4,8.4-43.3,26.2-43.9c1.3-0.1,6,0.1,6.1,3.2c0,1-0.2,1.3-1.4,3.7c-1.1,1.5-1.7,3.4-1.7,5.3c0.2,5,3.9,8.2,9.4,8 c7.3-0.2,9.4-7.4,9.3-11C200.6,58.7,191.6,53.3,179.6,53.6z"/></g>
</svg>