<!--?xml version="1.0" encoding="utf-8"?-->
<!-- Svg Vector Icons : http://www.onlinewebfonts.com/icon -->

<svg version="1.1" xmlns="http://www.w3.org/2000/svg" xmlns:xlink="http://www.w3.org/1999/xlink" x="0px" y="0px" viewBox="0 0 256 256" enable-background="new 0 0 256 256" xml:space="preserve">
<metadata> Svg Vector Icons : http://www.onlinewebfonts.com/icon </metadata>
<g><g><path fill="#3e637b" data-title="Layer 0" xs="0" d="M238.4,85.3c0-5.5,0.1-10.2,0-15c-0.2-12.6,2.4-10.7-11-15.1c-0.3-0.1-0.7-0.2-1.1-0.3c-21.6-3.9-43.1-4.6-64,3.8c-13.7,5.5-23.9,14.8-29.2,28.7c-6.6,17.4-1.5,36.8,12.4,49.6c11,10.2,24.5,16.5,37.5,23.4c9.6,5.1,19.5,9.6,27.9,16.8c10.7,9.1,12.5,22,7.6,33.4c-4.6,10.9-14.8,13.8-25.1,15.4c-9.4,1.5-18.9,1-28.3-1.2c-11.2-2.6-21.9-6.1-31.3-12.9c-0.7-0.5-2-1.1-2.6-0.8c-0.6,0.3-0.9,1.7-0.9,2.6c-0.1,6.5,0.1,13.1-0.1,19.6c-0.1,2.9,0.9,4.6,3.5,5.8c13.4,6.2,27.8,8.4,42.2,9.2c12.9,0.7,25.8-1.3,37.9-5.9c17.9-6.8,29.3-19.5,31.6-39c1.8-15.2-2.7-28.5-13.7-39.4c-11.3-11.3-25.1-18.5-39.2-25.6c-9.7-4.9-19.7-9.3-28-16.7c-7.5-6.7-10.8-14.9-9-25c2-11.6,10.2-17,20.3-20.5c8-2.8,16.3-2.6,24.5-2.4c11.9,0.3,22.9,3.5,33.2,9.4C235.1,84.1,236.3,84.5,238.4,85.3z M98.6,129.1c0-29.1,0-58.2,0-87.2c0-9.5,0-9.5,9.5-9.5c15.9,0,31.9,0,47.8,0c4.4,0,5-0.7,5-5c0-4.5,0-9.1,0-13.6c0-6.3,0-6.3-6.3-6.3c-41,0-82,0-123.1,0c-5.4,0-10.8,0-16.2,0c-5.1,0-5.4,0.3-5.4,5.2c0,4.8,0,9.6,0,14.3c0,4.9,0.4,5.3,5.4,5.3c16.8,0,33.6,0,50.4,0c5.8,0,5.8,0,5.8,5.7c0,43.5,0,87.1,0,130.6c0,17,0,34,0,51c0,5.2,0.1,5.4,5.2,5.4c5.5,0,11,0,16.6,0c5.1,0,5.2,0,5.2-5.3C98.6,189.5,98.6,159.3,98.6,129.1z"/></g></g>
</svg>