<!--?xml version="1.0" encoding="utf-8"?-->
<!-- Svg Vector Icons : http://www.onlinewebfonts.com/icon -->

<svg version="1.1" xmlns="http://www.w3.org/2000/svg" xmlns:xlink="http://www.w3.org/1999/xlink" x="0px" y="0px" viewBox="0 0 256 256" enable-background="new 0 0 256 256" xml:space="preserve">
<metadata> Svg Vector Icons : http://www.onlinewebfonts.com/icon </metadata>
<g><g><path fill="#274357" data-title="Layer 0" xs="0" d="M244.6,130.9c0,25.7-7.5,48.8-22.5,69.4c-15,20.5-34.4,34.7-58.2,42.6c-2.8,0.5-4.8,0.1-6.1-1.1c-1.3-1.2-1.9-2.8-1.9-4.6v-32.4c0-9.9-2.7-17.2-8-21.8c5.8-0.6,11.1-1.5,15.8-2.8c4.7-1.2,9.5-3.2,14.4-6c5-2.8,9.1-6.2,12.5-10.2c3.3-4,6-9.4,8.1-16.1c2.1-6.7,3.2-14.4,3.2-23.1c0-12.4-4-22.9-12.1-31.6c3.8-9.3,3.4-19.8-1.2-31.4c-2.9-0.9-7-0.4-12.5,1.7c-5.4,2-10.1,4.3-14.1,6.8l-5.8,3.7c-9.5-2.7-19.4-4-29.5-4c-10.1,0-20,1.3-29.5,4c-1.6-1.1-3.8-2.5-6.5-4.1c-2.7-1.6-7-3.6-12.8-5.9c-5.8-2.3-10.2-3-13.2-2.1c-4.5,11.6-4.9,22-1.1,31.4c-8.1,8.7-12.1,19.3-12.1,31.6c0,8.7,1.1,16.4,3.2,23c2.1,6.6,4.8,12,8.1,16.1c3.3,4.1,7.4,7.5,12.4,10.3c5,2.8,9.8,4.8,14.4,6c4.7,1.2,9.9,2.1,15.7,2.8c-4.1,3.7-6.6,9-7.5,15.8c-2.1,1-4.5,1.8-6.9,2.3c-2.5,0.5-5.4,0.8-8.8,0.8c-3.4,0-6.7-1.1-10.1-3.3c-3.3-2.2-6.2-5.4-8.5-9.6c-2-3.3-4.4-5.9-7.4-8s-5.6-3.3-7.6-3.7l-3.1-0.5c-2.1,0-3.6,0.2-4.5,0.7c-0.8,0.5-1.1,1.1-0.8,1.8c0.3,0.7,0.8,1.4,1.4,2.1c0.6,0.7,1.3,1.3,2,1.9l1.1,0.8c2.3,1,4.5,3,6.7,5.8c2.2,2.9,3.8,5.5,4.8,7.8l1.5,3.5c1.3,3.9,3.6,7,6.8,9.4c3.2,2.4,6.6,3.9,10.3,4.6c3.7,0.7,7.2,1,10.7,1.1c3.4,0,6.3-0.1,8.5-0.5l3.5-0.6c0,3.9,0.3,8.5,0.8,13.7c0.5,5.2,0.8,8,0.8,8.3c0,1.9-0.7,3.4-2,4.6c-1.3,1.2-3.4,1.6-6.1,1.1c-23.8-7.9-43.2-22.1-58.2-42.6c-15-20.5-22.5-43.7-22.5-69.4c0-21.4,5.3-41.2,15.8-59.2c10.5-18.1,24.9-32.4,42.9-42.9c18.1-10.5,37.8-15.8,59.2-15.8c21.4,0,41.2,5.3,59.2,15.8c18.1,10.5,32.4,24.9,42.9,42.9c10.5,18.1,15.8,37.8,15.8,59.2H244.6z"/></g></g>
</svg>